<svg xmlns="http://www.w3.org/2000/svg" width="13.775" height="16.07" viewBox="0 0 13.775 16.07">
  <path id="Icon_material-live-help" data-name="Icon material-live-help" d="M16.744,3H6.031A1.53,1.53,0,0,0,4.5,4.531V15.244a1.53,1.53,0,0,0,1.531,1.531H9.092l2.3,2.3,2.3-2.3h3.061a1.535,1.535,0,0,0,1.531-1.531V4.531A1.535,1.535,0,0,0,16.744,3ZM12.153,15.244H10.622V13.714h1.531Zm1.584-5.931-.689.7a2.605,2.605,0,0,0-.9,2.166H10.622V11.8a3.08,3.08,0,0,1,.9-2.166l.949-.964a1.5,1.5,0,0,0,.451-1.079,1.531,1.531,0,1,0-3.061,0H8.326a3.061,3.061,0,1,1,6.122,0,2.435,2.435,0,0,1-.712,1.722Z" transform="translate(-4.5 -3)" fill="#51a654"/>
</svg>
