<svg xmlns="http://www.w3.org/2000/svg" width="19.472" height="22.182" viewBox="0 0 19.472 22.182">
  <g id="Group_12430" data-name="Group 12430" transform="translate(-37.852 -507.75)">
    <g id="Group_12320" data-name="Group 12320" transform="translate(13.601 26.182)">
      <path id="Icon_awesome-birthday-cake" data-name="Icon awesome-birthday-cake" d="M18.972,16.262c-1.187,0-1.324-1.355-3.155-1.355s-1.983,1.355-3.166,1.355-1.332-1.355-3.166-1.355c-1.814,0-2,1.355-3.155,1.355-1.192,0-1.321-1.355-3.166-1.355S1.19,16.262,0,16.262V12.874a2.033,2.033,0,0,1,2.033-2.033H2.71v-6.1h2.71v6.1h2.71v-6.1h2.71v6.1h2.71v-6.1h2.71v6.1h.678a2.033,2.033,0,0,1,2.033,2.033Zm0,5.421H0V17.617c1.836,0,1.98-1.355,3.166-1.355s1.323,1.355,3.166,1.355c1.814,0,2-1.355,3.155-1.355,1.192,0,1.321,1.355,3.166,1.355s1.98-1.355,3.166-1.355c1.164,0,1.323,1.355,3.155,1.355ZM4.065,4.065A1.351,1.351,0,0,1,2.71,2.71C2.71,1.4,4.065,1.736,4.065,0c.508,0,1.355,1.249,1.355,2.371S4.817,4.065,4.065,4.065Zm5.421,0A1.351,1.351,0,0,1,8.131,2.71C8.131,1.4,9.486,1.736,9.486,0c.508,0,1.355,1.249,1.355,2.371S10.238,4.065,9.486,4.065Zm5.421,0A1.351,1.351,0,0,1,13.551,2.71c0-1.313,1.355-.974,1.355-2.71.508,0,1.355,1.249,1.355,2.371S15.658,4.065,14.906,4.065Z" transform="translate(24.5 481.818)" fill="none" stroke="#707070" stroke-width="0.5"/>
    </g>
  </g>
</svg>
