<svg xmlns="http://www.w3.org/2000/svg" width="11.831" height="11.831" viewBox="0 0 11.831 11.831">
  <path id="Icon_metro-cancel" data-name="Icon metro-cancel" d="M8.486,1.928A5.915,5.915,0,1,0,14.4,7.843,5.915,5.915,0,0,0,8.486,1.928Zm0,10.721a4.806,4.806,0,1,1,4.806-4.806,4.806,4.806,0,0,1-4.806,4.806Zm1.849-7.764L8.486,6.734,6.637,4.886,5.528,5.995,7.377,7.843,5.528,9.692,6.637,10.8,8.486,8.952,10.335,10.8l1.109-1.109L9.6,7.843l1.849-1.849Z" transform="translate(-2.571 -1.928)" fill="#727272"/>
</svg>
