<svg xmlns="http://www.w3.org/2000/svg" width="16.222" height="16.227" viewBox="0 0 16.222 16.227">
  <g id="Group_12415" data-name="Group 12415" transform="translate(-300.5 -786)">
    <path id="Icon" d="M13.587,16.227H2.625A2.636,2.636,0,0,1,0,13.587V2.64A2.636,2.636,0,0,1,2.625,0H13.587a2.64,2.64,0,0,1,2.634,2.64V13.587A2.64,2.64,0,0,1,13.587,16.227ZM2.625,1.382A1.254,1.254,0,0,0,1.378,2.64V13.587a1.251,1.251,0,0,0,1.247,1.252H13.587a1.253,1.253,0,0,0,1.252-1.252V2.64a1.256,1.256,0,0,0-1.252-1.257ZM5.335,12.32a.418.418,0,0,1-.418-.418V4.325a.418.418,0,0,1,.418-.418H9.1a2.219,2.219,0,0,1,1.554.649A2.153,2.153,0,0,1,11.3,6.109V7.181a2.2,2.2,0,0,1-.653,1.559A2.168,2.168,0,0,1,9.1,9.383H5.757V11.9A.42.42,0,0,1,5.335,12.32Zm.422-7.588V8.548H9.1a1.324,1.324,0,0,0,.966-.4h.005a1.359,1.359,0,0,0,.4-.965V6.109a1.386,1.386,0,0,0-.4-.97h-.005A1.38,1.38,0,0,0,9.1,4.732Z" transform="translate(300.5 786)" fill="#9c9c9c"/>
  </g>
</svg>
