<svg xmlns="http://www.w3.org/2000/svg" width="32.385" height="32.738" viewBox="0 0 32.385 32.738">
  <g id="Layer_x0020_1" transform="translate(-0.054 -0.02)">
    <path id="Path_1801" data-name="Path 1801" d="M1.772,7.381a9.445,9.445,0,0,1,.713-.727L4.592,4.546c.808-.8,2.058-2.118,2.824-2.821-.016.824,0,1.66,0,2.483-.006,2.947.381,3.168-1.684,3.168l-3.958,0ZM15.809,19.3a1.82,1.82,0,0,0-.185-.581c0-.491-.288-1.235-.243-1.758.036-.421.355-.41,1.172-.87a7,7,0,0,0,2.9-3.281c.318-.733.145-.918,1-1.041a20.628,20.628,0,0,1,3.932-.187c.628.03,1.22.083,1.847.162.963.122.789.13,1.122.918A7.452,7.452,0,0,0,29,15.124a7.147,7.147,0,0,0,1.813,1.251c.658.346.879.045.424,2.18-.083.389-.422,1.353-.431,1.6a1.136,1.136,0,0,0-.24.854c.1.308.505.356.795.191a9.774,9.774,0,0,0,.9-2.793c.246-1.215.382-2.213-.614-2.723a6.45,6.45,0,0,1-3.57-3.849c-.413-1.06-1.357-1.053-2.541-1.154-1.311-.112-5.673-.32-6.494.678-.409.5-.392,1.317-1.312,2.407-1.093-.068-2.408-.016-3.52,0h-8.9c-.4,0-1.434-.122-1.7.131-.13.126-.466.86.587.845,2.88-.041,6.047,0,8.958,0,1.145,0,2.485.064,3.606-.009l-.192.164c-1.067.826-1.71.674-2.074,1.565a2.422,2.422,0,0,0-.033,1.225c-2.429-.1-5.992-.006-8.629-.006-.474,0-.948,0-1.422,0-.5,0-.995-.052-.954.541.036.52.521.437,1.007.436H8.838c1.931.014,3.881.016,5.812,0a14.063,14.063,0,0,0,.4,1.518c.158.49.412.979.551,1.419H4.36c-.476,0-1.139.079-.867.707.164.38.863.269,1.289.271,3.664.018,7.726-.083,11.274,0,.005.006.967,1.555,1.545,2.266l.548.687c-1.455-.1-3.187-.016-4.675-.016-3.067,0-6.344-.042-9.38,0-.385.005-.678.147-.632.559.042.38.343.429.738.427H18.268c.431,0,.75-.085,1.025.137.127.1.214.148.331.251a11.122,11.122,0,0,0,3.318,1.986c.01.49,0,.984,0,1.475.007,1.752-1.018,1.417-3.1,1.417-1.269,0-17.605.08-18.031-.042-.973-.28-.753-1.415-.753-2.218V20.434c0-4-.08-8.08,0-12.068.38-.056,3.012-.018,3.616-.018,1.556,0,2.9.268,3.541-1.025a7.929,7.929,0,0,0,.175-2.64c0-1.072-.094-2.644.01-3.654,3.356-.093,7.473,0,10.972,0h1.844c2.092,0,1.724.489,1.725,3.76q0,1.844,0,3.688c0,.567-.109,1.388.676,1.143.45-.141.3-1.052.3-1.564V4.366c0-.946.149-2.7-.3-3.4C23,.021,22.25.049,20.849.049H9.786C7.62.049,7.939-.212,6.9.845L.469,7.272c-.506.5-.385.563-.385,1.467,0,6.085.054,12.379,0,18.439-.01,1.145-.069,2.569.005,3.687a2.006,2.006,0,0,0,1.843,1.858c1.157.072,2.511.011,3.69.011H20.375c1.276,0,2.349.169,3.033-.682.746-.928.475-1.865.513-3.186a12.683,12.683,0,0,0,3.607-2.223c.2-.194.262-.239.444-.4.319-.281.508-.52.838-.85l.755-.932c.166-.218,1.4-1.793,1.077-2.137a.45.45,0,0,0-.516-.267c-.278.017-.3.116-.4.32-.177.371-.356.6-.495.9-.305.315-.456.656-.888,1.123-.2.214-.039.121-.392.449l-.624.642a10.142,10.142,0,0,1-.889.8,11.74,11.74,0,0,1-2.6,1.556c-.551.253-.793.014-1.252-.2A12.125,12.125,0,0,1,20.082,26a2.627,2.627,0,0,1-.246-.178L18.406,24.3c-.393-.569-.519-.677-1.043-1.486A13.39,13.39,0,0,1,15.809,19.3ZM8.6,8.722c-.464.1-.774.968.4.958,1.128-.01,6.078.076,6.453-.019a.492.492,0,0,0,.318-.677c-.126-.312-.4-.279-.763-.277-.773,0-6.15-.041-6.406.014Zm14.689,5.745a1.389,1.389,0,0,1,1.535,1.489c.013.851-.157,1.8-1.183,1.942-1.765.251-1.865-2.194-1.339-2.867a1.36,1.36,0,0,1,.988-.564Zm-.172-.966a2.3,2.3,0,0,0-1.6.963,3.51,3.51,0,0,0-.212,3.089,2.365,2.365,0,0,0,2.5,1.308,2.463,2.463,0,0,0,1.571-.971,3.2,3.2,0,0,0,.422-2.091A2.349,2.349,0,0,0,23.114,13.5ZM20.562,22.91a6.749,6.749,0,0,1,.228-2.645c.483-1.2.859-.115,1.3.612s.77,1.533,1.548,1.359c.525-.117,1.036-1.215,1.306-1.665.095-.158.167-.26.261-.422s.145-.35.348-.394c.652-.141.775,1.607.752,2.154-.069,1.635.69,1.245-4.558,1.245-.4,0-1.106.121-1.183-.244Zm2.37-2.574,1,.025c-.055.106-.174.277-.242.385-.086.139-.155.263-.255.4a5.966,5.966,0,0,1-.5-.815ZM21.05,18.765c-.862.139-1.291,1.1-1.427,2.031-.092.626-.191,2.524.341,3,.574.514,2.184.335,3.1.335a24.87,24.87,0,0,0,3.354-.072c1.035-.343.864-1.4.863-2.571,0-1.71-.972-3.269-2.218-2.589-2.372,1.295-2.962-.3-4.013-.134Z" transform="translate(0 0)" fill="#00a19c" fill-rule="evenodd"/>
  </g>
</svg>
