<svg xmlns="http://www.w3.org/2000/svg" width="21.58" height="18.412" viewBox="0 0 21.58 18.412">
  <g id="Layer_x0020_1" transform="translate(0.001 -0.008)">
    <path id="Path_1958" data-name="Path 1958" d="M4.357,18.055,4.34,11.8l5.463.023c.061.415.044,6.055-.02,6.234l-5.427,0Zm12.856-6.223c.047,1,.006,2.087.006,3.108,0,.451.064,2.891-.031,3.081-.083.063-.121.04-.312.038H13.094a5.882,5.882,0,0,1-1.325-.045l-.011-6.148c.068-.074-.1-.048.179-.069l5.277.037Zm-13.23-.369.094,6.819,11.875.12c.362,0,1.426.095,1.564-.144s.036-5.966.055-6.793q-6.794-.005-13.588,0Zm4.353-2.93A2.17,2.17,0,0,0,7.755,8.1c-.174-.085-.639-.14-.4-.424.29-.348.842.527.982.762,0,.006.016.034.018.027s.052-.011-.016.068ZM7.349,7.251a.545.545,0,0,0-.387.714c.133.58.547.146,1.259.963a1.132,1.132,0,0,1,.233.319c.06.145.052.386.153.459.336.243.53-.583.009-1.495C8.417,7.863,7.929,7.082,7.349,7.251ZM13.2,8.491a3.03,3.03,0,0,1,.427-.58c.2-.206.4-.465.592-.234.284.341-.366.258-.919.784-.082.078-.048.115-.1.03Zm-.456,1.24c.614.039-.132-.353,1.055-1.186.417-.292.545-.117.726-.382.4-.59-.478-1.7-1.467-.13C12.839,8.383,12.42,9.253,12.746,9.731ZM2.438,9.574c-.147-.062-.917-.475-1.191-.3-.165.106-.152.355-.512.322-.468-.042-.792-1.17.715-.681A2.394,2.394,0,0,1,2.438,9.574ZM3.3,10.991a1.869,1.869,0,0,0-.27-1.253,2.618,2.618,0,0,0-.769-.8C1.691,8.55.441,8.026.072,8.841A.791.791,0,0,0,1.09,9.9c.263-.1.326-.281.453-.284a1.8,1.8,0,0,1,1.345,1c.131.308.034.433.41.378ZM19.135,9.542c.585-.53,2.014-1.211,2.074-.41a.4.4,0,0,1-.371.463c-.575.058-.157-.586-1.132-.269-.444.144-.484.29-.572.216Zm2.418-.183a.777.777,0,0,0-.594-.948,2.767,2.767,0,0,0-1.236.289c-1.458.712-1.757,2.372-1.288,2.311.314-.04.079-.748,1.114-1.238.786-.372.446.022,1.041.162a.775.775,0,0,0,.963-.576ZM5.3,8.5c.1.118.151.388.273.5s.442.1.632.145c-.535.5-.451.27-.336,1.057-.832-.362-.344-.3-1.132,0,.066-.445.243-.635-.332-1.008.067-.061.029-.044.144-.084.154-.054.331,0,.469-.121.1-.093.161-.336.282-.489Zm-1.465.4c-.025.254.417.612.609.759-.01.287-.21.778-.071.995.287.213.656-.307.928-.309.3,0,.63.514.931.314.141-.221-.058-.711-.071-1a3.6,3.6,0,0,0,.354-.33c.128-.117.287-.174.253-.432-.211-.151-.792-.037-.974-.261-.155-.19-.225-.759-.491-.752-.244.007-.337.585-.49.759-.168.193-.784.147-.978.258Zm11.538.238c.19-.048.508-.034.632-.145s.169-.376.273-.5c.117.148.185.4.282.488.178.165.4.015.613.205-.588.384-.4.577-.332,1.007-.166-.063-.416-.245-.563-.244a3.158,3.158,0,0,0-.569.243c.113-.786.2-.556-.336-1.057ZM14.809,8.9c-.043.248.116.306.253.432a3.774,3.774,0,0,0,.354.33c-.025.573-.461,1.369.432.886a1.451,1.451,0,0,1,.427-.2c.273,0,.638.519.929.311.136-.222-.062-.707-.073-1,.192-.145.632-.505.61-.759-.223-.142-.833-.052-1-.284-.273-.383-.155-.739-.57-.73-.113.148-.306.673-.412.775-.177.17-.744.088-.953.236ZM9.893,7.683l.593-.081.292-.544.293.538.609.094a.488.488,0,0,1-.173.221c-.357.334-.252.22-.154.849a4.581,4.581,0,0,0-.566-.248,4.308,4.308,0,0,0-.565.25c.087-.572.207-.525-.13-.83A.546.546,0,0,1,9.893,7.683Zm.375-.41a3.4,3.4,0,0,0-.951.19c-.033.392.353.521.547.745.243.28-.524,1.473.461.921.713-.4.447-.182,1.1.1.6.259.214-.7.23-.981,1.075-.908.622-.83-.352-.978a4.705,4.705,0,0,0-.416-.817l-.206,0A4.648,4.648,0,0,0,10.268,7.273ZM4.359,5.507a8.22,8.22,0,0,1-.027-1.765c.386-.057,5.909-.02,6.456-.02.806,0,6.125-.077,6.436.041-.01.224.034,1.655-.027,1.721s-8.417.026-9.177.026c-1.189,0-2.485.049-3.661,0Zm6.808-2.16C11.049.87,12.914.682,13.838,1.279c1.055.682-1.2,2.2-2.672,2.069Zm-.379.005A4.13,4.13,0,0,1,7.723,1.676C6.891.522,8.363.262,9.046.4c1.17.229,1.748,1.96,1.741,2.958Zm-1.5.034c-1.586.075-3.271-.034-4.825,0-.414.009-.475.113-.479.526-.007.633-.013,1.313.006,1.944l13.576,0c.008-.585,0-1.171,0-1.756,0-.9-.262-.71-1.109-.71-1.162,0-2.441.051-3.587,0a3.876,3.876,0,0,0,1.3-.977C15.311,1,13.081.357,12,.789c-.736.293-.892,1.045-1.076,1.294A3.093,3.093,0,0,0,9.8.335,2.224,2.224,0,0,0,7.57.281c-.819.5-.365,1.384.105,1.9a5.3,5.3,0,0,0,1.615,1.2Zm.879,14.671a26.17,26.17,0,0,1-.046-3.117c0-.525-.039-2.814.025-3.14l1.261.023c.063.509,0,4.792.014,5.885,0,.078.016.278-.034.323a9.319,9.319,0,0,1-1.219.026Z" transform="translate(0 0)" fill="#ff3a3a" fill-rule="evenodd"/>
  </g>
</svg>
