<svg xmlns="http://www.w3.org/2000/svg" width="10.986" height="10.983" viewBox="0 0 10.986 10.983">
  <path id="Icon_awesome-edit" data-name="Icon awesome-edit" d="M12.345,2.2l2.382,2.382a.258.258,0,0,1,0,.364L8.959,10.715l-2.451.272a.514.514,0,0,1-.568-.568l.272-2.451L11.98,2.2A.258.258,0,0,1,12.345,2.2Zm4.278-.6L15.334.308a1.033,1.033,0,0,0-1.458,0l-.935.935a.258.258,0,0,0,0,.364l2.382,2.382a.258.258,0,0,0,.364,0l.935-.935a1.033,1.033,0,0,0,0-1.458Z" transform="translate(-5.938 -0.007)"/>
</svg>
