<svg xmlns="http://www.w3.org/2000/svg" width="11.489" height="11.489" viewBox="0 0 11.489 11.489">
  <path id="Icon_material-call" data-name="Icon material-call" d="M6.811,9.472a9.669,9.669,0,0,0,4.206,4.206l1.4-1.4a.635.635,0,0,1,.651-.153,7.281,7.281,0,0,0,2.279.364.64.64,0,0,1,.638.638v2.228a.64.64,0,0,1-.638.638A10.85,10.85,0,0,1,4.5,5.138.64.64,0,0,1,5.138,4.5H7.372a.64.64,0,0,1,.638.638,7.251,7.251,0,0,0,.364,2.279.641.641,0,0,1-.16.651Z" transform="translate(-4.5 -4.5)" fill="#51a654"/>
</svg>
