<svg xmlns="http://www.w3.org/2000/svg" width="18.721" height="12.322" viewBox="0 0 18.721 12.322">
  <g id="Layer_x0020_1" transform="translate(-0.074 0.007)">
    <g id="_1932611081088" transform="translate(0.074 -0.007)">
      <g id="Group_12214" data-name="Group 12214" transform="translate(0 0)">
        <path id="Path_1805" data-name="Path 1805" d="M6.719,6.137,9.035,8.059c.359.313.434.29.773.023l2.335-1.94,5.389,5.383a3.045,3.045,0,0,1-.965.068H1.8a1.788,1.788,0,0,1-.46-.061L6.719,6.137Zm6-.457c.072-.095.52-.441.643-.549l3.63-3.018c.169-.121.906-.777,1.016-.827a16.05,16.05,0,0,1,.057,2.386v6.1a6.642,6.642,0,0,1-.039,1.205l-5.307-5.3ZM.839,10.983A6.6,6.6,0,0,1,.8,9.777v-6.1A16.056,16.056,0,0,1,.858,1.287a.6.6,0,0,1,.174.131c.073.068.1.085.17.138L2.853,2.933c.256.233.687.557.994.828L5.671,5.272a4.53,4.53,0,0,1,.477.409l-5.308,5.3Zm1.267-9.6c-.054-.045-.071-.051-.131-.106-.031-.028-.074-.071-.111-.1-.089-.072-.153-.117-.248-.2a1.585,1.585,0,0,1-.229-.2A12.228,12.228,0,0,1,3.366.721H15.549a10.917,10.917,0,0,1,1.93.061c-.158.138-.324.28-.495.422l-1.27,1.049c-.089.077-.17.132-.252.2-.478.389-1.365,1.175-1.769,1.472l-.507.415c-.095.088-.139.125-.238.211l-.509.414c-.051.038-.076.068-.128.108-.5.379-2.668,2.262-2.889,2.379L6.9,5.367c-.045-.038-.069-.072-.119-.116s-.086-.059-.135-.1L5.132,3.894c-.1-.082-.154-.12-.245-.2L2.106,1.384ZM1.465.029A1.561,1.561,0,0,0,.3.8,3.2,3.2,0,0,0,.083,2.514v7.76A1.852,1.852,0,0,0,.5,11.79a1.671,1.671,0,0,0,.575.4,1.893,1.893,0,0,0,.846.119c.156,0,15.155.034,15.5-.016a1.58,1.58,0,0,0,1.147-.774A3.225,3.225,0,0,0,18.784,9.8V2.041c0-.9-.134-1.538-.993-1.911A1.9,1.9,0,0,0,16.945.01H3.366a17.859,17.859,0,0,0-1.9.018Z" transform="translate(-0.073 0.007)" fill="#707070" fill-rule="evenodd"/>
      </g>
    </g>
  </g>
</svg>
