<svg xmlns="http://www.w3.org/2000/svg" width="31.033" height="29.228" viewBox="0 0 31.033 29.228">
  <g id="Group_12405" data-name="Group 12405" transform="translate(-0.051 0)">
    <g id="Group_12404" data-name="Group 12404">
      <path id="Path_1604" data-name="Path 1604" d="M1933.328,4643.81l13.339,13.314.006,1.964.016,5.093a3.388,3.388,0,0,1-3.382,3.382h-19.831a3.394,3.394,0,0,1-3.382-3.382l-.016-7.021Z" transform="translate(-1917.765 -4638.334)" fill="#e51a4b" fill-rule="evenodd"/>
      <path id="Path_1605" data-name="Path 1605" d="M30.772,15.462a.9.9,0,1,1-1.262,1.283L15.524,3.018,1.538,16.745A.9.9,0,1,1,.276,15.462L14.893,1.116l0,0,.031-.029h0l.006-.005.011-.01.006-.005.012-.009.006,0,.012-.009h0L15,1.03l0,0,.006,0,.012-.008h0L15.035,1l.015-.01,0,0,.006,0,.013-.008.006,0,.013-.007.006,0,.013-.007h0L15.128.95l0,0,.006,0,.014-.006h0l.014-.006.006,0,.006,0,.014-.006.007,0,.014-.005.007,0,.014,0,.007,0,.014,0,.007,0,.014,0,.007,0,.014,0h0l.017,0h0l.007,0h0l.018,0h0l.019,0,.015,0h.007l.015,0h.007l.015,0h.2l.015,0h.007l.015,0h.007l.015,0,.019,0h0l.018,0h0l.007,0h0l.017,0h0l.014,0,.007,0,.014,0,.007,0,.014,0,.007,0,.014,0,.007,0,.014.005.007,0,.014.006.006,0,.006,0L15.9.938h0l.014.006.006,0,0,0,.014.007h0l.013.007.006,0,.013.007.006,0,.013.008.006,0,0,0,.015.01.018.012h0l.012.008.006,0,0,0,.014.011h0l.012.009.006,0,.012.009.006.005.011.01.006.005h0l.031.029,0,0,6.491,6.371V1.68A1.6,1.6,0,0,1,24.237.09h.474A1.6,1.6,0,0,1,26.3,1.68v9.394l4.471,4.388Z" transform="translate(0.043 -0.09)" fill="#e51a4b"/>
      <path id="Path_1606" data-name="Path 1606" d="M9134.018,15040.1h1.936a3.846,3.846,0,0,1,3.836,3.836v6.938h-9.607v-6.937A3.845,3.845,0,0,1,9134.018,15040.1Z" transform="translate(-9119.418 -15022.367)" fill="#fefefe" fill-rule="evenodd"/>
    </g>
  </g>
</svg>
