<svg xmlns="http://www.w3.org/2000/svg" width="40" height="40" viewBox="0 0 40 40">
  <g id="Group_12356" data-name="Group 12356" transform="translate(-28.146 -114.146)">
    <circle id="Ellipse_2903" data-name="Ellipse 2903" cx="20" cy="20" r="20" transform="translate(28.146 114.146)" fill="#f6a853"/>
    <path id="Icon_awesome-hotel" data-name="Icon awesome-hotel" d="M17.431,1.992a.5.5,0,0,0,.5-.5V.5a.5.5,0,0,0-.5-.5H.5A.5.5,0,0,0,0,.5v1a.5.5,0,0,0,.5.5H1V13.944H.5a.5.5,0,0,0-.5.5v1a.5.5,0,0,0,.5.5h7.47v-2.49a.5.5,0,0,1,.5-.5h1a.5.5,0,0,1,.5.5v2.49h7.47a.5.5,0,0,0,.5-.5v-1a.5.5,0,0,0-.5-.5h-.5V1.992ZM7.968,3.387a.428.428,0,0,1,.4-.4h1.2a.428.428,0,0,1,.4.4v1.2a.428.428,0,0,1-.4.4h-1.2a.428.428,0,0,1-.4-.4v-1.2Zm0,2.988a.428.428,0,0,1,.4-.4h1.2a.428.428,0,0,1,.4.4v1.2a.428.428,0,0,1-.4.4h-1.2a.428.428,0,0,1-.4-.4ZM3.984,3.387a.428.428,0,0,1,.4-.4h1.2a.428.428,0,0,1,.4.4v1.2a.428.428,0,0,1-.4.4h-1.2a.428.428,0,0,1-.4-.4ZM5.578,7.968h-1.2a.428.428,0,0,1-.4-.4v-1.2a.428.428,0,0,1,.4-.4h1.2a.428.428,0,0,1,.4.4v1.2A.428.428,0,0,1,5.578,7.968Zm.4,3.984a2.988,2.988,0,0,1,5.976,0ZM13.944,7.57a.428.428,0,0,1-.4.4h-1.2a.428.428,0,0,1-.4-.4v-1.2a.428.428,0,0,1,.4-.4h1.2a.428.428,0,0,1,.4.4Zm0-2.988a.428.428,0,0,1-.4.4h-1.2a.428.428,0,0,1-.4-.4v-1.2a.428.428,0,0,1,.4-.4h1.2a.428.428,0,0,1,.4.4Z" transform="translate(39.196 126.383)" fill="#fff"/>
  </g>
</svg>
