<svg xmlns="http://www.w3.org/2000/svg" width="40" height="40" viewBox="0 0 40 40">
  <g id="Group_12363" data-name="Group 12363" transform="translate(-40 -333)">
    <circle id="Ellipse_2903" data-name="Ellipse 2903" cx="20" cy="20" r="20" transform="translate(40 333)" fill="#1ae87e"/>
    <g id="Layer_x0020_1" transform="translate(49 343)">
      <g id="_2879577443504">
        <path id="Path_1959" data-name="Path 1959" d="M59.418,3.141c-.1.073-.226.179-.316.256a10.8,10.8,0,0,0-3.671,4.187,9.9,9.9,0,0,0-.68,1.929,15.787,15.787,0,0,0-.464,3.046l14.977.008a9.591,9.591,0,0,0-2.128-6.808,9,9,0,0,0-2.427-2.05,8.871,8.871,0,0,0-3.343-1.134,1.747,1.747,0,0,0,.3-1.69,1.481,1.481,0,0,0-2.8.923c.089.392.325.532.378.766A8.84,8.84,0,0,0,55.9,3.7a8.95,8.95,0,0,0-2.426,2.055,9.682,9.682,0,0,0-1.611,2.863,9.562,9.562,0,0,0-.515,3.93,7.673,7.673,0,0,0,1.584-.037c.033-.07.186-1.455.219-1.685a11,11,0,0,1,1.564-4.222,7.9,7.9,0,0,1,.833-1.08c.793-.743,2.78-2.319,3.87-2.387Z" transform="translate(-49.676 -0.004)" fill="#fff" fill-rule="evenodd"/>
        <path id="Path_1960" data-name="Path 1960" d="M21.262,414.061v-.634a.617.617,0,0,0-.616-.616H.616a.618.618,0,0,0-.616.617v.633a.617.617,0,0,0,.616.616H20.646A.617.617,0,0,0,21.262,414.061Z" transform="translate(0 -399.683)" fill="#fff" fill-rule="evenodd"/>
      </g>
    </g>
  </g>
</svg>
