<svg xmlns="http://www.w3.org/2000/svg" width="36.619" height="36.626" viewBox="0 0 36.619 36.626">
  <g id="Layer_x0020_1" transform="translate(0 -0.109)">
    <g id="_1932998347184" transform="translate(0 0.109)">
      <path id="Path_1790" data-name="Path 1790" d="M0,4922.561v20.7a2.587,2.587,0,0,0,2.781,2.317H15.834c.178,0,.232-.054.232-.231,0-2.622.387-2.163-1.545-2.163-3.733,0-7.827-.058-11.511,0-.344.006-.692.092-.692-.234v-15.68h25.1v4.325c0,.179.054.231.232.231h1.931c.178,0,.232-.053.232-.231v-8.574a2.6,2.6,0,0,0-2.317-2.7H26.261v1.159a2.24,2.24,0,0,1-4.48,0v-1.159H7.956v1.159a2.24,2.24,0,0,1-4.48,0v-1.159c-1.1,0-1.914-.138-2.764.711A2.487,2.487,0,0,0,0,4922.561Z" transform="translate(0 -4915.763)" fill="#00a19c" fill-rule="evenodd"/>
      <path id="Path_1791" data-name="Path 1791" d="M19801.354,19799.633a6.688,6.688,0,0,1,1.988-4.807,6.3,6.3,0,0,1,1.977-1.424,6.816,6.816,0,1,1-3.965,6.23Zm-2.316-.541a8.714,8.714,0,0,0,.85,4.4,8.346,8.346,0,0,0,.791,1.369,6.334,6.334,0,0,0,.463.621c.1.109.166.154.268.273.375.447.018.141.574.584a3.17,3.17,0,0,1,.277.262,4.24,4.24,0,0,0,.607.475,9.261,9.261,0,0,0,10.689-.029,6.421,6.421,0,0,0,.6-.482c.223-.213.363-.273.58-.5a9.718,9.718,0,0,0,1.756-2.57,9.276,9.276,0,0,0,0-7.8,8.836,8.836,0,0,0-.795-1.369,7.844,7.844,0,0,0-1.268-1.434,8.688,8.688,0,0,0-3.807-2.141,9.216,9.216,0,0,0-6.387.566,7.8,7.8,0,0,0-2.246,1.537l-.541.541c-.1.113-.166.16-.27.273a9.7,9.7,0,0,0-1.268,1.975A8.845,8.845,0,0,0,19799.037,19799.092Z" transform="translate(-19780.732 -19772.137)" fill="#00a19c" fill-rule="evenodd"/>
      <path id="Path_1792" data-name="Path 1792" d="M24064.021,26904.875c-.863-.576-2.326-2.7-3.088-2.7-.705,0-1.312.3-1.312,1.158,0,.771,1.145,1.65,1.912,2.414.379.381.7.7,1.08,1.082.678.678.689.908,1.563.908.592,0,2.6-2.256,3.109-2.762s2.762-2.521,2.762-3.109c0-.766-.371-1.312-1.158-1.312-.705,0-1,.5-1.371.869Z" transform="translate(-24037.375 -26875.68)" fill="#00a19c" fill-rule="evenodd"/>
      <path id="Path_1793" data-name="Path 1793" d="M19799,14791.855h4.635v-4.4c0-.177-.055-.231-.232-.231h-4.4Z" transform="translate(-19780.695 -14773.548)" fill="#00a19c" fill-rule="evenodd"/>
      <path id="Path_1794" data-name="Path 1794" d="M12363.9,14791.855h4.635v-4.4c0-.177-.056-.231-.232-.231h-4.4Z" transform="translate(-12352.469 -14773.548)" fill="#00a19c" fill-rule="evenodd"/>
      <path id="Path_1795" data-name="Path 1795" d="M12363.9,22226.832h4.635v-4.4c0-.178-.056-.23-.232-.23h-4.4Z" transform="translate(-12352.469 -22201.652)" fill="#00a19c" fill-rule="evenodd"/>
      <path id="Path_1796" data-name="Path 1796" d="M4928.85,14791.855h4.634v-4.4c0-.177-.053-.231-.231-.231h-4.4Z" transform="translate(-4924.292 -14773.548)" fill="#00a19c" fill-rule="evenodd"/>
      <path id="Path_1797" data-name="Path 1797" d="M4928.85,22226.832h4.634v-4.4c0-.178-.053-.23-.231-.23h-4.4Z" transform="translate(-4924.292 -22201.652)" fill="#00a19c" fill-rule="evenodd"/>
      <path id="Path_1798" data-name="Path 1798" d="M4928.85,5.805v4.866c0,1.334,2.317,1.334,2.317,0V5.805C4931.167,4.472,4928.85,4.472,4928.85,5.805Z" transform="translate(-4924.292 -4.801)" fill="#00a19c" fill-rule="evenodd"/>
      <path id="Path_1799" data-name="Path 1799" d="M24727.9,1.113V5.979c0,1.334,2.318,1.334,2.318,0V1.191a1.166,1.166,0,0,0-2.318-.077Z" transform="translate(-24705.039 -0.109)" fill="#00a19c" fill-rule="evenodd"/>
    </g>
  </g>
</svg>
