<svg xmlns="http://www.w3.org/2000/svg" width="27.991" height="29.904" viewBox="0 0 27.991 29.904">
  <g id="Group_12406" data-name="Group 12406" transform="translate(-0.007 0.04)">
    <g id="_2873656266080" transform="translate(0.007 -0.04)">
      <path id="Path_1593" data-name="Path 1593" d="M22.877,6.666a2.1,2.1,0,0,0,.5,1.415,2.9,2.9,0,0,0,1.514.859c.07.017.2.046.32.073v0a2.3,2.3,0,0,1,1.226.553.267.267,0,0,1,.037.032,2.094,2.094,0,0,1,.688,1.534,2.454,2.454,0,0,1-.615,1.642.374.374,0,0,1-.042.049,3.613,3.613,0,0,0-1.01,1.834,2.526,2.526,0,0,0,.624,1.888c.015.02.088.105.171.2v0c.549.638,1.429,1.661.548,3.013a2.245,2.245,0,0,1-1.706,1.076,4.942,4.942,0,0,0-.8.234c-1.513.61-1.463,1.9-1.423,2.9a3.52,3.52,0,0,1-.132,1.468,2.108,2.108,0,0,1-.811.979,2.254,2.254,0,0,1-1.232.343,2.964,2.964,0,0,1-1.174-.356c-.1-.048-.2-.093-.248-.112a3.105,3.105,0,0,0-1.237-.248,1.794,1.794,0,0,0-.936.293,3.274,3.274,0,0,0-1.111,1.287,2.551,2.551,0,0,1-1,1.146c-1.861,1.035-2.762-.592-3.216-1.41-.053-.1-.1-.175-.124-.214-1.125-1.622-2.557-1.033-3.447-.668a2.776,2.776,0,0,1-.97.283,2.262,2.262,0,0,1-1.211-.324A2.089,2.089,0,0,1,5.25,25.5a3.457,3.457,0,0,1-.157-1.556,2.667,2.667,0,0,0-.808-2.523,3.218,3.218,0,0,0-.3-.193,2.516,2.516,0,0,0-.314-.153,5.463,5.463,0,0,0-.823-.239,3.153,3.153,0,0,1-.918-.311h0c-.027-.016-.063-.038-.109-.069A2.18,2.18,0,0,1,.882,19.1a2.269,2.269,0,0,1,.267-1.642c.017-.029.042-.069.074-.118a5.194,5.194,0,0,1,.4-.51,2.893,2.893,0,0,0,.888-1.917,2.871,2.871,0,0,0-.861-1.889,2.676,2.676,0,0,1-.837-1.75c0-1.8,1.315-2.119,2.328-2.367a4.413,4.413,0,0,0,.49-.137c1.539-.6,1.5-1.957,1.462-2.981a3.463,3.463,0,0,1,.129-1.4A2.1,2.1,0,0,1,6.033,3.4a2.255,2.255,0,0,1,1.235-.34,2.412,2.412,0,0,1,1.1.331c.113.056.222.11.3.138a2.608,2.608,0,0,0,1.906.106,3.124,3.124,0,0,0,1.367-1.384l.085-.149a2.447,2.447,0,0,1,.948-1.052C14.841,0,15.762,1.689,16.2,2.481c.051.093.092.169.106.187h0c1.13,1.554,2.321,1.1,3.275.738a3.883,3.883,0,0,1,1.332-.343,1.876,1.876,0,0,1,1.079.36,2.31,2.31,0,0,1,.757.906A3.536,3.536,0,0,1,22.9,6.039c-.014.2-.027.411-.027.627Zm-9.111,23.2h.5a2.874,2.874,0,0,0,.509-.091,2.916,2.916,0,0,0,.514-.193,2.878,2.878,0,0,0,.638-.429,3.1,3.1,0,0,0,.525-.6c.08-.12.163-.273.243-.423.343-.637.667-1.239,1.55-1.239a2.752,2.752,0,0,1,.967.281,2.98,2.98,0,0,0,3.648-.429,3.968,3.968,0,0,0,.366-.406,2.805,2.805,0,0,0,.271-.459,3.4,3.4,0,0,0,.241-2.014c-.078-.718-.139-1.277.436-1.76a2.821,2.821,0,0,1,1.183-.465,5.364,5.364,0,0,0,.868-.261,2.733,2.733,0,0,0,.654-.4,3.227,3.227,0,0,0,.529-.556,3.051,3.051,0,0,0,.585-1.79,2.982,2.982,0,0,0-.532-1.788h0c-.081-.111-.177-.222-.276-.335h0c-.08-.092-.162-.186-.261-.313a2.162,2.162,0,0,1-.589-1.222,2,2,0,0,1,.55-1.318c.113-.149.2-.244.289-.342a3.9,3.9,0,0,0,.284-.339,2.687,2.687,0,0,0,.236-.39,3.1,3.1,0,0,0-.968-3.843v0a3.33,3.33,0,0,0-.488-.293,3.371,3.371,0,0,0-.837-.254,2.752,2.752,0,0,1-1.155-.432c-.658-.478-.594-1.063-.511-1.82a3.382,3.382,0,0,0-.206-1.927,2.964,2.964,0,0,0-.266-.479,4.566,4.566,0,0,0-.355-.419l0,0-.027-.03,0,0-.038-.038v0a2.863,2.863,0,0,0-1.481-.777,2.738,2.738,0,0,0-1.631.171c-.2.09-.019.01-.229.1-1.331.6-1.874.845-2.742-.733l-.1-.192a2.9,2.9,0,0,0-.182-.31c-.092-.139-.166-.231-.264-.355L16.135.86v0C16.1.81,16.1.809,16.087.8L16.019.75a4.3,4.3,0,0,0-.99-.636A3.343,3.343,0,0,0,13.816-.04a2.5,2.5,0,0,0-1.231.346,3.125,3.125,0,0,0-1.038.963c-.082.122-.135.217-.192.318-.048.086-.1.175-.131.228l-.053.09A1.587,1.587,0,0,1,9.814,2.931a2.713,2.713,0,0,1-1.2-.34c-.1-.047-.2-.093-.285-.127a3.2,3.2,0,0,0-1.184-.236,2.828,2.828,0,0,0-1.7.57A3.2,3.2,0,0,0,4.394,4.172,2.659,2.659,0,0,0,4.2,5.15a5.783,5.783,0,0,0,.043.589c.079.735.16,1.5-.418,1.983A2.471,2.471,0,0,1,2.7,8.164,3.181,3.181,0,0,0,.593,9.4a3.059,3.059,0,0,0-.585,1.792,2.977,2.977,0,0,0,.531,1.786c.149.205.3.374.43.527.728.833,1.177,1.346.128,2.666l-.209.26a2.98,2.98,0,0,0-.871,2.425,2.27,2.27,0,0,0,.139.752,3.227,3.227,0,0,0,.418.794,3.146,3.146,0,0,0,2.1,1.251,2.838,2.838,0,0,1,1.083.4c.635.461.575,1.05.5,1.81a3.5,3.5,0,0,0,.21,1.947A3.1,3.1,0,0,0,6.083,27.4a2.933,2.933,0,0,0,2.208-.02c.163-.064.3-.123.423-.177,1.106-.482,1.676-.73,2.529.82a5.157,5.157,0,0,0,.605.913,2.5,2.5,0,0,0,.786.61,3.217,3.217,0,0,0,.57.222,3.037,3.037,0,0,0,.561.1Z" transform="translate(-0.007 0.04)" fill="#848688" fill-rule="evenodd"/>
      <g id="Group_12070" data-name="Group 12070" transform="translate(7.92 9.077)">
        <line id="Line_1" data-name="Line 1" x1="10.254" y2="10.258" transform="translate(0.861 0.978)" fill="none" stroke="#848688" stroke-linecap="round" stroke-linejoin="round" stroke-width="1"/>
        <circle id="Ellipse_2866" data-name="Ellipse 2866" cx="2.283" cy="2.283" r="2.283" fill="none" stroke="#848688" stroke-width="1"/>
        <circle id="Ellipse_2867" data-name="Ellipse 2867" cx="2.283" cy="2.283" r="2.283" transform="translate(7.585 7.521)" fill="none" stroke="#848688" stroke-width="1"/>
      </g>
    </g>
  </g>
</svg>
