<svg xmlns="http://www.w3.org/2000/svg" width="18.736" height="19.776" viewBox="0 0 18.736 19.776">
  <g id="Group_12282" data-name="Group 12282" transform="translate(-203 -661.171)">
    <g id="Layer_x0020_1" transform="translate(202.997 661.167)">
      <g id="_1532131486400" transform="translate(0.003 0.005)">
        <path id="Path_1884" data-name="Path 1884" d="M4.475,1.015c.861-.2,4.959-.042,6.183-.042,4.248,0,3.966-.437,3.966,2.241V12.68c0,.949.255,2.261-.6,2.479l-9.4.031c-1.067-.08-.8-1.248-.8-2.247V3.476c0-1.452-.246-2.255.654-2.461ZM4.322,19.781h.832c.834-.36.964-.122,1.616-.82a2.664,2.664,0,0,0,.567-1.923c.921-.056.791.039.8-.922l2.484-.01c0,1.047-.106.868.819.934-.036,2.487,1.6,2.479,2.175,2.741h.842a13.792,13.792,0,0,1,3.335-.466c.366.165.2.5.881.167.531-1.746-2.1-1.07-3.322-.8-1.71.375-3.012.253-3-1.626.852-.118.722.088.725-.912.887-.188,1.289.12,1.938-.518.587-.576.535-1.006.533-1.98,0-1.48.107-11.759-.087-12.422-.187-.642-.582-.8-1.1-1.045C13.733-.12,5.634.057,4.268.057,3.862.266,3.791.2,3.437.551a1.52,1.52,0,0,0-.479.753C2.816,1.913,2.9,12.286,2.9,13.732c-.006,2.088.7,2.387,2.761,2.367,0,.985-.109.834.77.956C6.442,20.9.989,17.15.112,18.7a.757.757,0,0,0,.061.862l.536.042c.358-.476.467-.42,1.726-.189.344.063,1.695.287,1.887.364Z" transform="translate(-0.003 -0.005)" fill="#9c9c9c" fill-rule="evenodd"/>
        <path id="Path_1886" data-name="Path 1886" d="M361.611,118.992a11.373,11.373,0,0,0-2.952-.1.476.476,0,0,0-.235.747c.21.249,1.509.138,1.944.139C361.19,119.778,361.881,119.942,361.611,118.992Z" transform="translate(-350.764 -116.335)" fill="#9c9c9c" fill-rule="evenodd"/>
        <path id="Path_1887" data-name="Path 1887" d="M345.115,460.11a2.129,2.129,0,0,1,1.508.625l0,0a2.131,2.131,0,0,1,0,3.016l0,0a2.131,2.131,0,0,1-3.016,0l0,0a2.131,2.131,0,0,1,0-3.016l0,0A2.13,2.13,0,0,1,345.115,460.11Zm.89,1.243a1.263,1.263,0,0,0-1.781,0l0,0a1.263,1.263,0,0,0,0,1.781l0,0a1.263,1.263,0,0,0,1.781,0l0,0a1.263,1.263,0,0,0,0-1.781Z" transform="translate(-335.747 -450.407)" fill="#9c9c9c"/>
      </g>
    </g>
  </g>
</svg>
