<svg xmlns="http://www.w3.org/2000/svg" width="15.79" height="15.79" viewBox="0 0 15.79 15.79">
  <path id="Icon_awesome-directions" data-name="Icon awesome-directions" d="M15.5,7.2,8.594.29a.989.989,0,0,0-1.4,0L.29,7.2a.989.989,0,0,0,0,1.4L7.2,15.5a.989.989,0,0,0,1.4,0L15.5,8.594a.989.989,0,0,0,0-1.4Zm-3.114.387-2.6,2.4A.247.247,0,0,1,9.375,9.8V8.142H6.414v1.974a.247.247,0,0,1-.247.247H5.181a.247.247,0,0,1-.247-.247V7.648a.987.987,0,0,1,.987-.987H9.375V5a.247.247,0,0,1,.414-.181l2.6,2.4a.247.247,0,0,1,0,.363Z" fill="#51a654"/>
</svg>
