<svg xmlns="http://www.w3.org/2000/svg" width="13" height="13" viewBox="0 0 13 13">
  <path id="Icon_material-local-offer" data-name="Icon material-local-offer" d="M3.383,9.227l5.85-5.85A1.292,1.292,0,0,1,10.15,3H14.7A1.3,1.3,0,0,1,16,4.3V8.85a1.3,1.3,0,0,1-.384.923l-5.85,5.85A1.292,1.292,0,0,1,8.85,16a1.271,1.271,0,0,1-.917-.383l-4.55-4.55A1.271,1.271,0,0,1,3,10.15a1.313,1.313,0,0,1,.383-.923ZM13.725,6.25a.975.975,0,1,0-.975-.975A.974.974,0,0,0,13.725,6.25Z" transform="translate(-3 -3)" fill="#f69e28"/>
</svg>
