<svg xmlns="http://www.w3.org/2000/svg" width="13.71" height="15.244" viewBox="0 0 13.71 15.244">
  <g id="Group_12433" data-name="Group 12433" transform="translate(0 0)">
    <path id="Path_1815" data-name="Path 1815" d="M4.159,221.446a1.453,1.453,0,0,0-.055-.226,4.654,4.654,0,0,0-1.955.664,4.509,4.509,0,0,0-2.01,2.807,3.105,3.105,0,0,0,.36,2.628,3.392,3.392,0,0,0,2.422.757h7.9a3.032,3.032,0,0,0,2.546-.923,3.57,3.57,0,0,0,.12-2.871,4.459,4.459,0,0,0-.972-1.634,4.549,4.549,0,0,0-2.879-1.416,1.256,1.256,0,0,0-.095.372c-.193.807-2.033,1.128-2.8,1.108A3.633,3.633,0,0,1,5,222.294a1.542,1.542,0,0,1-.837-.848Z" transform="translate(-0.015 -212.831)" fill="#fff" fill-rule="evenodd"/>
    <path id="Path_1817" data-name="Path 1817" d="M82.949,2.1a1.444,1.444,0,0,0,.823.8,6.19,6.19,0,0,0,2.9.23c.452-.05.975-.229,1.322.047a1.474,1.474,0,0,1,.457,1.178,4.321,4.321,0,0,1-.325,1.284,5.84,5.84,0,0,1-1.253,1.984,2.245,2.245,0,0,1-2.378.63,3.224,3.224,0,0,1-.975-.658A6.135,6.135,0,0,1,81.952,4.33a3.561,3.561,0,0,1,1-2.229Zm3.527,6.49a4.969,4.969,0,0,0,1.324-1.3,5.63,5.63,0,0,0,.953-4.812,3.775,3.775,0,0,0-7.266,1.918A6.71,6.71,0,0,0,83.205,8a2.976,2.976,0,0,0,1.9.991,2.273,2.273,0,0,0,1.369-.4Z" transform="translate(-78.358 -0.005)" fill="#fff" fill-rule="evenodd"/>
  </g>
</svg>
