<svg xmlns="http://www.w3.org/2000/svg" xmlns:xlink="http://www.w3.org/1999/xlink" width="14" height="14" viewBox="0 0 14 14">
  <defs>
    <clipPath id="clip-path">
      <circle id="Ellipse_2896" data-name="Ellipse 2896" cx="7" cy="7" r="7" transform="translate(273 332)" fill="none" stroke="#848688" stroke-width="0.5"/>
    </clipPath>
  </defs>
  <g id="Group_12228" data-name="Group 12228" transform="translate(-276 -333)">
    <g id="Ellipse_2895" data-name="Ellipse 2895" transform="translate(276 333)" fill="none" stroke="#848688" stroke-width="0.5">
      <circle cx="7" cy="7" r="7" stroke="none"/>
      <circle cx="7" cy="7" r="6.75" fill="none"/>
    </g>
    <g id="Mask_Group_15" data-name="Mask Group 15" transform="translate(3 1)" clip-path="url(#clip-path)">
      <g id="Layer_x0020_1" transform="translate(275.239 334.605)">
        <path id="Path_1827" data-name="Path 1827" d="M0,12.857a1.628,1.628,0,0,0,.274,1.054c.836.836,1.47-.189,1.309-1.024a15.782,15.782,0,0,1,.387-4.952c.023-.064-.009.029.014-.034a.618.618,0,0,0,.028-.092l.108-.368c.092.068.048.331.048.453V20.667a4.988,4.988,0,0,0,.038,1.25l.267.5a.453.453,0,0,0,.062.058l.026.021.069.05a.955.955,0,0,0,.3.179c.117.038.171.059.214.068H3.6c.1,0-.014,0,.084-.034.036-.013.055-.014.093-.025a1.287,1.287,0,0,0,.167-.072.691.691,0,0,0,.142-.1l.073-.069a1,1,0,0,0,.311-.428l.048-.143c.034-.1.034.019.034-.085V13.043h.429c0,.609-.031,8.681.009,8.831l.111.27a1.2,1.2,0,0,0,.727.607l.016.006.108.03h.433l.438-.181a1.438,1.438,0,0,0,.29-.282l.011-.013c.015-.016,0,0,.034-.036l.182-.461L7.359,7.847c0-.118-.039-.342.048-.4a.191.191,0,0,0,.01.086l.02.052a.087.087,0,0,1,.006.016,11.739,11.739,0,0,1,.536,3.015v2.05a3.313,3.313,0,0,0-.031.89l.041.124c0,.005,0,.013.006.018L8,13.709a.762.762,0,0,0,.6.429.834.834,0,0,0,.572-.143c.02-.019.035-.035.059-.059a.773.773,0,0,0,.249-.68c0-.191.048-.278.049-.469V10.533c0-.179-.049-.243-.048-.446a7.46,7.46,0,0,0-.074-.974,1.466,1.466,0,0,1-.044-.218L9.3,8.459C9.279,8.4,9.29,8.5,9.27,8.368c-.308-1.13-.922-3.357-2.529-3.357H2.786a1.332,1.332,0,0,0-.419.082L2.349,5.1l-.231.1a2.512,2.512,0,0,0-.422.268l-.014.01C-.181,7.654,0,10.148,0,12.856ZM4.765,0A2.275,2.275,0,1,1,2.49,2.275,2.275,2.275,0,0,1,4.765,0Z" transform="translate(0)" fill="#898989" fill-rule="evenodd"/>
      </g>
    </g>
  </g>
</svg>
