<svg xmlns="http://www.w3.org/2000/svg" width="162.478" height="143.839" viewBox="0 0 162.478 143.839">
  <g id="Group_12436" data-name="Group 12436" transform="translate(-106.184 -162.85)">
    <g id="Group_12435" data-name="Group 12435">
      <g id="Path_1947" data-name="Path 1947" transform="translate(212.011 306.689) rotate(-115)" fill="#00a19c">
        <path d="M 0.8066908717155457 10.47482681274414 L 5.21526575088501 1.020616412162781 L 11.0830717086792 9.888710021972656 L 0.8066908717155457 10.47482681274414 Z" stroke="none"/>
        <path d="M 5.291035652160645 2.041240692138672 L 1.613374710083008 9.928003311157227 L 10.18599700927734 9.439061164855957 L 5.291035652160645 2.041240692138672 M 5.13949728012085 9.5367431640625e-06 L 11.98013782501221 10.33835983276367 L 1.71661376953125e-05 11.02164936065674 L 5.13949728012085 9.5367431640625e-06 Z" stroke="none" fill="#fff"/>
      </g>
      <g id="Layer_x0020_1" transform="translate(132.791 162.85)">
        <g id="_1567975210992" transform="translate(0 0)">
          <path id="Path_1933" data-name="Path 1933" d="M17.29,66.4c1.515.309,18.023.093,21.053.093,2.1,0,8.811.278,10.325-.278,3.184-1.206,3.184-3.493,3.184-7.42,0-3.432.185-40.1-.062-42.415H17.321V66.4Z" transform="translate(36.161 34.29)" fill="#00a19c" fill-rule="evenodd"/>
          <path id="Path_1934" data-name="Path 1934" d="M2.128,62.564a4,4,0,0,0,1.793,3.153,6.51,6.51,0,0,0,3.926.9H36.721c0-16.292-.185-32.646,0-48.907V16.78c-.526-.4-31.78-.68-34.779-.216-.587,13.139-.031,27.2-.031,40.5,0,1.237-.309,4.792.247,5.534Z" transform="translate(3.499 34.169)" fill="#00a19c" fill-rule="evenodd"/>
          <path id="Path_1935" data-name="Path 1935" d="M.031,12.459,0,28.6l40.158.062L40.251,8.1,4.112,8.162a4.675,4.675,0,0,0-4.05,4.3Z" transform="translate(0 16.973)" fill="#00a19c" fill-rule="evenodd"/>
          <path id="Path_1936" data-name="Path 1936" d="M17.341,28.73c1.638-.34,38.087-.155,39.849-.093l-.062-16.787a4.871,4.871,0,0,0-3.864-3.679L17.31,8.11l.031,20.62Z" transform="translate(36.203 16.994)" fill="#00a19c" fill-rule="evenodd"/>
          <path id="Path_1937" data-name="Path 1937" d="M34.238,19.251c-4.421.062-9.645.216-14,0-3-.155-6.678-4.544-2.937-8.007,3.277-3.03,6.43-1.237,9.614,1.237,1.669,1.3,6.708,5.472,7.358,6.8Zm3.03,0c.68-1.144,5.657-5.626,7.2-6.708,2.72-1.886,6.307-4.73,9.738-1.329,3.833,3.772-.155,7.852-2.782,8.038-4.05.309-9.985.093-14.19,0Zm-1.515-2.04c-.8-.989-1.577-2.535-2.442-3.71C30,9.08,20.821.269,15.689.022,4.807-.473.943,16.1,11.392,20.7c2.875,1.268,8.254.68,11.748.68H48.211c3.339,0,9.151.526,11.809-.618C70.593,16.252,67.038-.164,56.064-.009,51.179.083,41.657,9.049,38.288,13.315c-.649.835-1.762,3.03-2.5,3.864Z" transform="translate(10.99 0.01)" fill="#00a19c" fill-rule="evenodd"/>
        </g>
      </g>
      <path id="Path_1946" data-name="Path 1946" d="M13.981,0l4.7,12.654H0Z" transform="translate(106.184 240.581) rotate(-90)" fill="#00a19c"/>
      <g id="Path_1948" data-name="Path 1948" transform="translate(127.834 276.095) rotate(-177)" fill="none">
        <path d="M13.981,0l4.7,12.655H0Z" stroke="none"/>
        <path d="M 13.55743026733398 1.732044219970703 L 2.594972610473633 11.65449619293213 L 17.24294471740723 11.65452003479004 L 13.55743026733398 1.732044219970703 M 13.98084449768066 2.86102294921875e-06 L 18.68112564086914 12.65452194213867 L -5.7220458984375e-06 12.65449237823486 L 13.98084449768066 2.86102294921875e-06 Z" stroke="none" fill="#5d5d5d"/>
      </g>
      <path id="Path_1949" data-name="Path 1949" d="M15.6,0,8.136,10.484,0,1.761Z" transform="translate(238.829 232.585) rotate(-90)" fill="#5d5d5d"/>
      <path id="Path_1950" data-name="Path 1950" d="M4.193,8.991,9.773.557,0,0Z" transform="translate(225.785 257.985)" fill="#00a19c"/>
      <path id="Path_1951" data-name="Path 1951" d="M13.95,0,12.144,20.252,0,7.253Z" transform="translate(251.872 286.58) rotate(-124)" fill="#707070"/>
      <circle id="Ellipse_2901" data-name="Ellipse 2901" cx="6.251" cy="6.251" r="6.251" transform="translate(127.562 288.721)" fill="#707070"/>
    </g>
  </g>
</svg>
