<svg xmlns="http://www.w3.org/2000/svg" width="30.936" height="29.45" viewBox="0 0 30.936 29.45">
  <g id="Layer_x0020_1" transform="translate(0.02 -0.007)">
    <g id="_1933783306080" transform="translate(-0.02 0.007)">
      <path id="Path_1784" data-name="Path 1784" d="M15.5,2427.74a14.044,14.044,0,0,1-11-5.328l-.963-1.379a14.1,14.1,0,0,1-1.748-10.112c.083-.4.341-.976.041-1.193-.237-.172-.883-.339-1.031-.528-.287-.366.215-.615.325-.7l3.361-2.427a.381.381,0,0,1,.564.076,7.292,7.292,0,0,1,.173,1.33c.093.945.194,1.892.288,2.833.206,2.054-1.246-.25-1.513.971a11.667,11.667,0,0,0,1.612,8.834l.63.887a10.983,10.983,0,0,0,3.332,2.909,11.563,11.563,0,0,0,4.674,1.535,4.147,4.147,0,0,0,1.46.009.362.362,0,0,0,.072-.527c-.142-.177-.333-.146-.607-.152A11.019,11.019,0,0,1,4.64,2411.8c.422.045.551.246,1.052-.014a1.027,1.027,0,0,0,.572-.749c.066-.338-.356-4.166-.432-4.789a1.109,1.109,0,0,0-1.516-.926c-.187.078-1.322.9-1.552,1.07-.51.371-1.008.722-1.5,1.082-.128.093-.247.183-.374.283-.157.123-.255.162-.389.267-.865.678-.647,1.816.684,2.181a19.867,19.867,0,0,0-.412,3.5,14.717,14.717,0,0,0,16.389,14.668c.427-.048,1.264-.035,1.3-.466.054-.622-.779-.334-1.234-.277l-1.729.1Z" transform="translate(0.02 -2399.024)" fill="#00a19c" fill-rule="evenodd"/>
      <path id="Path_1785" data-name="Path 1785" d="M4941.173,18.094a14.722,14.722,0,0,0-1.427-10.438,14.429,14.429,0,0,0-4.129-4.737A14.7,14.7,0,0,0,4924.764.153c-.346.049-.829.083-.7.528.1.372.568.229.926.181A14.283,14.283,0,0,1,4927.4.753a13.949,13.949,0,0,1,8.228,3.1,13.979,13.979,0,0,1,4.943,13.536c-.235,1.2-.457,1.035.612,1.519.468.212.4.542.155.73-.906.684-2.067,1.453-2.964,2.125-.776.581-1.158.947-1.271-.167l-.353-3.463c-.039-.377-.149-.827.126-.986.544-.315,1.3,1.024,1.523-.28a11.8,11.8,0,0,0-3.833-11.006,11.953,11.953,0,0,0-7.24-2.875c-.39-.014-.913-.065-.854.416.05.411.557.3.976.321a11.028,11.028,0,0,1,10.344,12.249c-.095.842-.013.5-.534.408a1.1,1.1,0,0,0-1.3,1.189l.472,4.575a1.088,1.088,0,0,0,1.548.788c.208-.09,1.193-.849,1.466-1.038.138-.1.232-.156.365-.251l1.114-.816c.456-.368,1.131-.6,1.3-1.248a1.156,1.156,0,0,0-.247-1.011,2.376,2.376,0,0,0-.8-.47Z" transform="translate(-4911.318 -0.007)" fill="#00a19c" fill-rule="evenodd"/>
      <path id="Path_1786" data-name="Path 1786" d="M7350.063,10683.462a.353.353,0,0,0-.336-.55,5.029,5.029,0,0,0-.709.255c-.3.11-1.228.32-1.324.525a.362.362,0,0,0,.344.541A6.955,6.955,0,0,0,7350.063,10683.462Z" transform="translate(-7328.665 -10655.31)" fill="#00a19c" fill-rule="evenodd"/>
      <path id="Path_1787" data-name="Path 1787" d="M3799.331,198.813a11.568,11.568,0,0,0-1.388.439c-.229.09-.462.159-.441.454.05.692,1.023.073,1.882-.162.235-.064.466-.15.437-.437a.355.355,0,0,0-.489-.294Z" transform="translate(-3787.688 -198.281)" fill="#00a19c" fill-rule="evenodd"/>
      <path id="Path_1788" data-name="Path 1788" d="M2761.212,648.445c-.2.074-1.5.73-1.528,1.082-.027.295.222.47.525.355.094-.036.42-.264.533-.334.448-.279.953-.452.962-.762A.347.347,0,0,0,2761.212,648.445Z" transform="translate(-2752.551 -646.742)" fill="#00a19c" fill-rule="evenodd"/>
      <path id="Path_1789" data-name="Path 1789" d="M8557.565,10170.174a.349.349,0,0,0-.284-.477c-.224-.034-.388.126-.529.222-.2.14-.851.466-.925.642a.361.361,0,0,0,.284.5,1.208,1.208,0,0,0,.543-.217C8556.9,10170.707,8557.462,10170.439,8557.565,10170.174Z" transform="translate(-8533.689 -10143.417)" fill="#00a19c" fill-rule="evenodd"/>
      <text id="_" data-name="%" transform="translate(9 19.45)" fill="#00a19c" font-size="14" font-family="Segoe UI Emoji"><tspan x="0" y="0">%</tspan></text>
    </g>
  </g>
</svg>
