<svg xmlns="http://www.w3.org/2000/svg" width="11.447" height="10.173" viewBox="0 0 11.447 10.173">
  <path id="Icon_awesome-edit" data-name="Icon awesome-edit" d="M8,1.658,9.794,3.451a.194.194,0,0,1,0,.274l-4.34,4.34-1.844.2a.387.387,0,0,1-.427-.427L3.386,6l4.34-4.34A.194.194,0,0,1,8,1.658ZM11.22,1.2l-.97-.97a.777.777,0,0,0-1.1,0l-.7.7a.194.194,0,0,0,0,.274L10.243,3a.194.194,0,0,0,.274,0l.7-.7a.777.777,0,0,0,0-1.1ZM7.631,6.885V8.908H1.272V2.549H5.839a.244.244,0,0,0,.169-.07L6.8,1.684a.238.238,0,0,0-.169-.407H.954A.954.954,0,0,0,0,2.231v7a.954.954,0,0,0,.954.954h7A.954.954,0,0,0,8.9,9.226V6.09A.239.239,0,0,0,8.5,5.921L7.7,6.716A.244.244,0,0,0,7.631,6.885Z" transform="translate(0 -0.007)" fill="#727272"/>
</svg>
