<svg xmlns="http://www.w3.org/2000/svg" width="73.124" height="83.172" viewBox="0 0 73.124 83.172">
  <g id="Group_12121" data-name="Group 12121" transform="translate(-225.5 -1165)">
    <g id="Group_12110" data-name="Group 12110" transform="translate(-13)">
      <g id="Group_12109" data-name="Group 12109" transform="translate(13 -0.077)">
        <g id="Layer_x0020_1" transform="translate(179.66 1165.087)">
          <g id="_1951123023024" transform="translate(46.34 -0.01)">
            <g id="Group_12113" data-name="Group 12113">
              <circle id="Ellipse_2878" data-name="Ellipse 2878" cx="4.377" cy="4.377" r="4.377" transform="translate(27.958 36.403)" fill="#d3ecfa"/>
              <g id="Group_12108" data-name="Group 12108" transform="translate(24.211 23.788)">
                <path id="Path_1724" data-name="Path 1724" d="M4011.984,3894.52h18.2a1.809,1.809,0,0,1,1.8,1.8v15.545a1.809,1.809,0,0,1-1.8,1.8h-18.2a1.809,1.809,0,0,1-1.8-1.8v-15.545A1.809,1.809,0,0,1,4011.984,3894.52Z" transform="translate(-4010.18 -3894.52)" fill="none" stroke="#00a19c" stroke-width="0.5"/>
              </g>
              <path id="Path_1725" data-name="Path 1725" d="M6707.771,3894.52h3.524a1.809,1.809,0,0,1,1.8,1.8v3.528A5.7,5.7,0,0,1,6707.771,3894.52Z" transform="translate(-6667.082 -3870.732)" fill="#d3ecfa" stroke="#00a19c" stroke-width="0.5" fill-rule="evenodd"/>
              <path id="Path_1726" data-name="Path 1726" d="M6470.224,6580.27h10.529l0-.164a5.278,5.278,0,0,0-10.536,0Z" transform="translate(-6429.216 -6540.108)" fill="#d3ecfa" stroke="#0b93cc" stroke-width="0.5" fill-rule="evenodd"/>
              <path id="Path_1727" data-name="Path 1727" d="M2028.437,6575.16h50.931a2.022,2.022,0,0,1,2.016,2.017v38.729a2.022,2.022,0,0,1-2.016,2.016h-50.931a2.022,2.022,0,0,1-2.016-2.016v-38.729A2.022,2.022,0,0,1,2028.437,6575.16Zm3.892,5.516h43.251a1.35,1.35,0,0,1,1.347,1.347V6611.8a1.35,1.35,0,0,1-1.347,1.347h-43.251a1.35,1.35,0,0,1-1.347-1.347v-29.775A1.35,1.35,0,0,1,2032.328,6580.676Z" transform="translate(-2014.326 -6534.999)" fill="#d9f2f1" stroke="#00a19c" stroke-width="0.5" fill-rule="evenodd"/>
              <rect id="Rectangle_5876" data-name="Rectangle 5876" width="15.863" height="12.733" rx="6.366" transform="translate(53.899 55.595)" fill="#fefefe" stroke="#0b93cc" stroke-width="1"/>
              <circle id="Ellipse_2880" data-name="Ellipse 2880" cx="1.923" cy="1.923" r="1.923" transform="translate(57.359 59.925)" fill="#d3ecfa" stroke="#0b93cc" stroke-width="1"/>
              <path id="Path_1728" data-name="Path 1728" d="M4015.508,3894.52h-3.524a1.809,1.809,0,0,0-1.8,1.8v3.528A5.7,5.7,0,0,0,4015.508,3894.52Z" transform="translate(-3985.969 -3870.732)" fill="#d3ecfa" stroke="#00a19c" stroke-width="0.5" fill-rule="evenodd"/>
              <path id="Path_1729" data-name="Path 1729" d="M269.3,25.154h3.535m65.96-9.01v3.535m-1.768-1.767h3.535M308.314-.01V3.525m-1.768-1.767h3.535M271.068,23.386v3.535m59.361-1.885a1.287,1.287,0,1,1-1.287,1.287A1.286,1.286,0,0,1,330.429,25.036Zm-49.82-14a1.049,1.049,0,1,1-1.049,1.049A1.049,1.049,0,0,1,280.609,11.032Zm23.124,4.351a1.049,1.049,0,1,1-1.049,1.049A1.05,1.05,0,0,1,303.734,15.383Z" transform="translate(-267.938 0.01)" fill="none" stroke="#00a19c" stroke-width="1" fill-rule="evenodd"/>
              <g id="_1951123043232" transform="translate(49.773 9.98)">
                <line id="Line_2" data-name="Line 2" y2="3.535" transform="translate(1.768)" fill="none" stroke="#d3ecfa" stroke-width="1"/>
                <line id="Line_3" data-name="Line 3" x2="3.535" transform="translate(0 1.768)" fill="none" stroke="#d3ecfa" stroke-width="1"/>
              </g>
              <circle id="Ellipse_2881" data-name="Ellipse 2881" cx="1.287" cy="1.287" r="1.287" transform="translate(59.665 6.883)" fill="#d3ecfa"/>
              <g id="_1951123024224" transform="translate(22.265 12.103)">
                <line id="Line_4" data-name="Line 4" y2="3.535" transform="translate(1.768)" fill="none" stroke="#d3ecfa" stroke-width="1"/>
                <line id="Line_5" data-name="Line 5" x2="3.535" transform="translate(0 1.768)" fill="none" stroke="#d3ecfa" stroke-width="1"/>
              </g>
              <circle id="Ellipse_2882" data-name="Ellipse 2882" cx="0.849" cy="0.849" r="0.849" transform="translate(26.26 3.208)" fill="#d3ecfa" stroke="#d3ecfa" stroke-width="1"/>
              <circle id="Ellipse_2883" data-name="Ellipse 2883" cx="0.849" cy="0.849" r="0.849" transform="translate(10.028 21.644)" fill="#d3ecfa" stroke="#d3ecfa" stroke-width="1"/>
              <circle id="Ellipse_2884" data-name="Ellipse 2884" cx="0.849" cy="0.849" r="0.849" transform="translate(0 8.009)" fill="#d3ecfa" stroke="#d3ecfa" stroke-width="1"/>
            </g>
          </g>
        </g>
      </g>
      <text id="_" data-name="₹" transform="translate(271 1238)" fill="#0b93cc" font-size="24" font-family="SegoeUI, Segoe UI" letter-spacing="0.012em"><tspan x="0" y="0">₹</tspan></text>
    </g>
  </g>
</svg>
