<svg xmlns="http://www.w3.org/2000/svg" width="13.298" height="15.196" viewBox="0 0 13.298 15.196">
  <path id="Path_1807" data-name="Path 1807" d="M8.394,8.461c0-.006.013.009.013.016s.006.007.006.006-.069.059-.019-.022ZM4.818,8.426a2.881,2.881,0,0,0,1.725.769A2.411,2.411,0,0,0,7.6,9a2.985,2.985,0,0,0,.422-.226A.969.969,0,0,0,8.2,8.646c.138-.117.048-.091.21-.138l-.266.606a1.875,1.875,0,0,1,1.131-.148C9.2,8.98,7.873,10.5,7.663,10.7c-.349.334-.389.446-.654.726a3.531,3.531,0,0,0-.334.348A15.211,15.211,0,0,1,5.4,10.51c-.4-.4-.843-.908-1.249-1.266a2.1,2.1,0,0,1,1.136.279l-.47-1.1ZM3.793,5.138,3.748,5l.088-.034C6.023,4.8,8.146,3.107,8.474,2.989c.24.442.419.965-.044,1.276l.589.118a1.916,1.916,0,0,1,.561.107c.009,1.92-1.052,3.91-2.622,4.161-1.945.311-3.212-2.285-3.166-3.514ZM1.758,9.146c.053.05-.074.044.151.05l.621,0c-.192.128-.416.237-.613.364-1.5.974-2.364,3.268-1.692,4.7.45.958,1.689.954,2.957.923,2.6-.063,5.084.025,7.627.006,1.307-.01,2.2-.239,2.424-1.418A4.443,4.443,0,0,0,10.35,9.019l1.209.178c-.216-.234-.2-.117-.474-.453a2.7,2.7,0,0,1-.342-.517,5.226,5.226,0,0,1-.426-1.343C10.1,5.757,10.262,4.721,10.1,3.6,9.486-.777,5.561-.554,4.218,1.084,2.377,3.33,3.71,5.963,2.559,8.226a2.239,2.239,0,0,1-.8.92Z" transform="translate(0.005 -0.001)" fill="#9c9c9c" fill-rule="evenodd"/>
</svg>
