<svg xmlns="http://www.w3.org/2000/svg" width="18.85" height="16.046" viewBox="0 0 18.85 16.046">
  <path id="Path" d="M1.823,3.955h8.208L13.787.209a.722.722,0,0,1,1.017,0,.69.69,0,0,1,.216.506V2.907l1.154.49a.724.724,0,0,1,.416.479l.2.7,1.565.527a.725.725,0,0,1,.485.69h.011V7.843a.728.728,0,0,1-.674.716l-4.457.732v4.926a1.817,1.817,0,0,1-1.828,1.828,1.844,1.844,0,0,1-1.823-1.828v-2.35H5.948v2.35a1.828,1.828,0,0,1-.527,1.291,1.859,1.859,0,0,1-1.3.537,1.825,1.825,0,0,1-1.291-.537,1.8,1.8,0,0,1-.543-1.291v-6.6H1.823A1.732,1.732,0,0,1,.137,6.51a1.97,1.97,0,0,1,0-1.443A1.736,1.736,0,0,1,1.823,3.955Z" transform="translate(0 0)" fill="#9c9c9c"/>
</svg>
