<svg xmlns="http://www.w3.org/2000/svg" width="18.477" height="12.654" viewBox="0 0 18.477 12.654">
  <g id="Layer_x0020_1" transform="translate(0.012)">
    <path id="Path_1818" data-name="Path 1818" d="M9.88,2.963c-.052.11.31.4.358.481.152-.085.2-.122.4-.228,4.331-2.094,7.533,1.3,7.223,4.527a4.77,4.77,0,0,1-7.746,3.226c-2.042-1.854-2.183-3.8-1.061-6.185a1.14,1.14,0,0,0-.38-.472,5.353,5.353,0,1,0,8.538-.439,5.284,5.284,0,0,0-5.389-1.761,8.786,8.786,0,0,0-1.946.851ZM4.445,0H6.7l.663,1.246L5.512,3.1,3.659,1.246,4.322,0ZM5.512.411H4.568l-.4.76L5.512,2.519,6.86,1.171l-.4-.76H5.512ZM6.96,2.448A4.942,4.942,0,0,1,10.012,9c-.048.113-.426.792-.415.8l.439.347A2.823,2.823,0,0,0,10.6,9.1,5.611,5.611,0,0,0,9.332,3.215,5.772,5.772,0,0,0,7.361,2.024l-.4.424Zm1.917,8.967-.368-.384a5.018,5.018,0,0,1-4.312.86A4.909,4.909,0,0,1,2.209,3.5,4.548,4.548,0,0,1,3.965,2.473a1.894,1.894,0,0,0-.391-.456A5.48,5.48,0,0,0,6.889,12.453a4.893,4.893,0,0,0,1.988-1.038Z" transform="translate(0)" fill="#707070" fill-rule="evenodd"/>
  </g>
</svg>
