<svg xmlns="http://www.w3.org/2000/svg" width="40" height="40" viewBox="0 0 40 40">
  <g id="Group_12362" data-name="Group 12362" transform="translate(-40 -223)">
    <circle id="Ellipse_2903" data-name="Ellipse 2903" cx="20" cy="20" r="20" transform="translate(40 223)" fill="#8248fe"/>
    <g id="Layer_x0020_1" transform="translate(51 233)">
      <path id="Path_1593" data-name="Path 1593" d="M14.686,4.264a1.347,1.347,0,0,0,.321.908,1.862,1.862,0,0,0,.972.551l.205.047h0a1.476,1.476,0,0,1,.787.355.172.172,0,0,1,.024.02,1.344,1.344,0,0,1,.442.984,1.575,1.575,0,0,1-.395,1.054.24.24,0,0,1-.027.031,2.319,2.319,0,0,0-.649,1.177,1.621,1.621,0,0,0,.4,1.212c.01.013.057.068.109.129h0a1.481,1.481,0,0,1,.352,1.934,1.441,1.441,0,0,1-1.095.69,3.172,3.172,0,0,0-.516.15c-.971.391-.939,1.216-.913,1.862a2.26,2.26,0,0,1-.085.943,1.353,1.353,0,0,1-.521.628,1.447,1.447,0,0,1-.791.22,1.9,1.9,0,0,1-.753-.229c-.067-.031-.129-.06-.159-.072A1.993,1.993,0,0,0,11.6,16.7a1.152,1.152,0,0,0-.6.188,2.1,2.1,0,0,0-.713.826,1.638,1.638,0,0,1-.642.735c-1.194.664-1.773-.38-2.064-.905-.034-.061-.062-.112-.08-.138a1.6,1.6,0,0,0-2.212-.428,1.782,1.782,0,0,1-.622.181,1.452,1.452,0,0,1-.777-.208,1.341,1.341,0,0,1-.518-.605,2.219,2.219,0,0,1-.1-1,1.712,1.712,0,0,0-.519-1.619,2.065,2.065,0,0,0-.192-.124,1.615,1.615,0,0,0-.2-.1,3.507,3.507,0,0,0-.528-.154,2.024,2.024,0,0,1-.59-.2h0l-.07-.044a1.4,1.4,0,0,1-.6-.868A1.457,1.457,0,0,1,.74,11.19c.011-.019.027-.044.048-.076a3.334,3.334,0,0,1,.257-.327,1.857,1.857,0,0,0,.57-1.23,1.843,1.843,0,0,0-.552-1.212A1.718,1.718,0,0,1,.525,7.222c0-1.154.844-1.36,1.494-1.519a2.833,2.833,0,0,0,.315-.088c.988-.384.96-1.256.939-1.913a2.223,2.223,0,0,1,.083-.9,1.349,1.349,0,0,1,.519-.63,1.447,1.447,0,0,1,.793-.218,1.548,1.548,0,0,1,.7.212c.073.036.143.071.192.088a1.674,1.674,0,0,0,1.224.068,2.005,2.005,0,0,0,.877-.888l.055-.1A1.571,1.571,0,0,1,8.327.662c1.2-.673,1.793.408,2.071.917.033.06.059.108.068.12h0a1.521,1.521,0,0,0,2.1.474,2.492,2.492,0,0,1,.855-.22,1.2,1.2,0,0,1,.693.231,1.483,1.483,0,0,1,.486.582,2.269,2.269,0,0,1,.1,1.1c-.009.131-.018.264-.018.4ZM8.838,19.155h.32a1.845,1.845,0,0,0,.327-.058,1.872,1.872,0,0,0,.33-.124,1.847,1.847,0,0,0,.41-.275,1.986,1.986,0,0,0,.337-.383c.051-.077.1-.175.156-.272.22-.409.428-.8.995-.8a1.766,1.766,0,0,1,.62.18,1.913,1.913,0,0,0,2.341-.275,2.547,2.547,0,0,0,.235-.261,1.8,1.8,0,0,0,.174-.295,2.183,2.183,0,0,0,.155-1.293c-.05-.461-.089-.819.28-1.13a1.811,1.811,0,0,1,.759-.3,3.443,3.443,0,0,0,.557-.167,1.754,1.754,0,0,0,.42-.255,2.072,2.072,0,0,0,.339-.357,1.958,1.958,0,0,0,.376-1.149,1.914,1.914,0,0,0-.341-1.147h0c-.052-.071-.114-.142-.177-.215h0c-.051-.059-.1-.119-.167-.2a1.388,1.388,0,0,1-.378-.784,1.282,1.282,0,0,1,.353-.846c.073-.1.128-.157.186-.22a2.5,2.5,0,0,0,.183-.218,1.725,1.725,0,0,0,.152-.25A1.992,1.992,0,0,0,17.157,5.6h0a2.137,2.137,0,0,0-.313-.188,2.164,2.164,0,0,0-.537-.163,1.767,1.767,0,0,1-.741-.278c-.422-.307-.381-.682-.328-1.168A2.171,2.171,0,0,0,15.1,2.563a1.9,1.9,0,0,0-.171-.308,2.931,2.931,0,0,0-.228-.269h0l-.017-.019v0l-.024-.024h0a1.838,1.838,0,0,0-.95-.5,1.758,1.758,0,0,0-1.047.109c-.131.058-.012.006-.147.067-.854.385-1.2.542-1.76-.471l-.065-.123a1.864,1.864,0,0,0-.117-.2C10.515.734,10.468.674,10.4.6L10.359.538h0C10.335.506,10.334.5,10.328.5L10.284.467A2.761,2.761,0,0,0,9.649.059a2.146,2.146,0,0,0-.778-.1,1.605,1.605,0,0,0-.79.222A2.006,2.006,0,0,0,7.414.8c-.052.079-.087.139-.124.2s-.063.112-.084.146l-.034.057a1.018,1.018,0,0,1-.871.659,1.742,1.742,0,0,1-.768-.218c-.064-.03-.127-.06-.183-.082a2.051,2.051,0,0,0-.76-.151A1.815,1.815,0,0,0,3.5,1.782a2.055,2.055,0,0,0-.678.882,1.707,1.707,0,0,0-.124.628,3.712,3.712,0,0,0,.028.378c.051.472.1.961-.269,1.272a1.586,1.586,0,0,1-.723.284,2.042,2.042,0,0,0-1.352.793,1.964,1.964,0,0,0-.376,1.15A1.911,1.911,0,0,0,.348,8.315c.1.132.19.24.276.338.467.534.755.864.082,1.711l-.134.167a1.913,1.913,0,0,0-.559,1.557A1.457,1.457,0,0,0,.1,12.57a2.071,2.071,0,0,0,.268.51,2.019,2.019,0,0,0,1.35.8,1.822,1.822,0,0,1,.7.258c.408.3.369.674.32,1.162a2.244,2.244,0,0,0,.135,1.25A1.991,1.991,0,0,0,3.907,17.57a1.883,1.883,0,0,0,1.417-.013c.1-.041.192-.079.272-.114.71-.309,1.076-.469,1.623.526a3.31,3.31,0,0,0,.388.586,1.6,1.6,0,0,0,.5.392,2.065,2.065,0,0,0,.366.142,1.95,1.95,0,0,0,.36.065Z" transform="translate(-0.007 0.04)" fill="#fff" fill-rule="evenodd"/>
      <g id="Group_12070" data-name="Group 12070" transform="translate(5.083 5.826)">
        <line id="Line_1" data-name="Line 1" x1="6.582" y2="6.584" transform="translate(0.553 0.627)" fill="none" stroke="#fff" stroke-linecap="round" stroke-linejoin="round" stroke-width="1"/>
        <circle id="Ellipse_2866" data-name="Ellipse 2866" cx="1.465" cy="1.465" r="1.465" fill="rgba(243,237,237,0)" stroke="#fff" stroke-width="1"/>
        <circle id="Ellipse_2867" data-name="Ellipse 2867" cx="1.465" cy="1.465" r="1.465" transform="translate(4.869 4.827)" fill="rgba(243,237,237,0)" stroke="#fff" stroke-width="1"/>
      </g>
    </g>
  </g>
</svg>
