<svg xmlns="http://www.w3.org/2000/svg" width="9.98" height="11.406" viewBox="0 0 9.98 11.406">
  <path id="Icon_awesome-address-book" data-name="Icon awesome-address-book" d="M9.713,3.564A.268.268,0,0,0,9.98,3.3V2.406a.268.268,0,0,0-.267-.267H9.267V1.069A1.07,1.07,0,0,0,8.2,0H1.069A1.07,1.07,0,0,0,0,1.069v9.267a1.07,1.07,0,0,0,1.069,1.069H8.2a1.07,1.07,0,0,0,1.069-1.069V9.267h.446A.268.268,0,0,0,9.98,9V8.109a.268.268,0,0,0-.267-.267H9.267V6.416h.446a.268.268,0,0,0,.267-.267V5.257a.268.268,0,0,0-.267-.267H9.267V3.564ZM4.634,2.851A1.426,1.426,0,1,1,3.208,4.277,1.427,1.427,0,0,1,4.634,2.851Zm2.5,5.275a.467.467,0,0,1-.5.428H2.638a.467.467,0,0,1-.5-.428V7.7a1.4,1.4,0,0,1,1.5-1.283h.111a2.295,2.295,0,0,0,1.773,0h.111A1.4,1.4,0,0,1,7.129,7.7Z" fill="#727272"/>
</svg>
