<svg xmlns="http://www.w3.org/2000/svg" width="195.732" height="187.864" viewBox="0 0 195.732 187.864">
  <g id="Group_12254" data-name="Group 12254" transform="translate(0 0)">
    <path id="Path_968" data-name="Path 968" d="M592.654,138.24h-1.028v-28.2A16.323,16.323,0,0,0,575.3,93.713H515.549a16.323,16.323,0,0,0-16.323,16.323V264.763a16.323,16.323,0,0,0,16.323,16.323H575.3a16.323,16.323,0,0,0,16.323-16.323V158.316h1.028Z" transform="translate(-427.928 -93.713)" fill="#3f3d56"/>
    <path id="Path_969" data-name="Path 969" d="M597.531,116.908V273.821A12.38,12.38,0,0,1,585.157,286.2H524.175a12.383,12.383,0,0,1-12.384-12.38V116.908a12.382,12.382,0,0,1,12.384-12.378h7.4a5.887,5.887,0,0,0,5.446,8.1h34.766a5.887,5.887,0,0,0,5.446-8.1h7.924A12.38,12.38,0,0,1,597.531,116.9Z" transform="translate(-437.181 -101.679)" fill="#fff"/>
    <circle id="Ellipse_18" data-name="Ellipse 18" cx="25.459" cy="25.459" r="25.459" transform="translate(92.01 27.303)" fill="#00a19c"/>
    <path id="Path_39" data-name="Path 39" d="M625.52,451.162H571.332a1,1,0,0,1-1-1V436.717a1,1,0,0,1,1-1H625.52a1,1,0,0,1,1,1v13.442a1,1,0,0,1-1,1Zm-54.188-15.047a.6.6,0,0,0-.6.6v13.442a.6.6,0,0,0,.6.6H625.52a.6.6,0,0,0,.6-.6V436.717a.6.6,0,0,0-.6-.6Z" transform="translate(-480.286 -345.549)" fill="#e6e6e6"/>
    <path id="Path_40" data-name="Path 40" d="M635.737,454.074a.7.7,0,1,0,0,1.4h33.115a.7.7,0,0,0,.054-1.4H635.737Z" transform="translate(-527.932 -359.068)" fill="#e6e6e6"/>
    <path id="Path_41" data-name="Path 41" d="M635.737,470.058a.7.7,0,1,0,0,1.4h33.115a.7.7,0,0,0,.054-1.4H635.737Z" transform="translate(-527.932 -370.838)" fill="#e6e6e6"/>
    <path id="Path_42" data-name="Path 42" d="M625.52,536.142H571.332a1,1,0,0,1-1-1V521.7a1,1,0,0,1,1-1H625.52a1,1,0,0,1,1,1v13.442A1,1,0,0,1,625.52,536.142ZM571.332,521.1a.6.6,0,0,0-.6.6v13.442a.6.6,0,0,0,.6.6H625.52a.6.6,0,0,0,.6-.6V521.7a.6.6,0,0,0-.6-.6Z" transform="translate(-480.286 -408.125)" fill="#e6e6e6"/>
    <path id="Path_43" data-name="Path 43" d="M635.737,539.33a.7.7,0,1,0,0,1.4h33.115a.7.7,0,0,0,.023-1.4H635.737Z" transform="translate(-527.932 -421.847)" fill="#e6e6e6"/>
    <path id="Path_44" data-name="Path 44" d="M635.737,555.318a.7.7,0,1,0,0,1.4h33.115a.7.7,0,1,0,.023-1.4H635.737Z" transform="translate(-527.932 -433.62)" fill="#e6e6e6"/>
    <path id="Path_39-2" data-name="Path 39-2" d="M625.52,621.4H571.332a1,1,0,0,1-1-1V606.955a1,1,0,0,1,1-1H625.52a1,1,0,0,1,1,1V620.4a1,1,0,0,1-1,1Zm-54.188-15.047a.6.6,0,0,0-.6.6V620.4a.6.6,0,0,0,.6.6H625.52a.6.6,0,0,0,.6-.6V606.955a.6.6,0,0,0-.6-.6Z" transform="translate(-480.286 -470.905)" fill="#e6e6e6"/>
    <path id="Path_40-2" data-name="Path 40-2" d="M635.737,624.591a.7.7,0,1,0,0,1.4h33.115a.7.7,0,0,0,.054-1.4H635.737Z" transform="translate(-527.932 -484.63)" fill="#e6e6e6"/>
    <path id="Path_41-2" data-name="Path 41-2" d="M635.737,640.578a.7.7,0,1,0,0,1.4h33.115a.7.7,0,0,0,.054-1.4H635.737Z" transform="translate(-527.932 -496.402)" fill="#e6e6e6"/>
    <path id="Path_970" data-name="Path 970" d="M424.012,804.747H229.3c-.282,0-.511-.123-.511-.275s.229-.276.511-.276h194.71c.282,0,.511.123.511.276S424.294,804.747,424.012,804.747Z" transform="translate(-228.791 -616.884)" fill="#e6e6e6"/>
    <g id="Group_58" data-name="Group 58" transform="translate(172.764 163.584)">
      <path id="Path_438" data-name="Path 438" d="M912.876,727.725a5.134,5.134,0,0,1-4.958-.873c-1.737-1.457-2.281-3.859-2.724-6.082l-1.31-6.577,2.743,1.889a19.984,19.984,0,0,1,5.356,4.728c1.366,1.968,1.962,4.654.865,6.782" transform="translate(-898.666 -714.193)" fill="#e6e6e6"/>
      <path id="Path_439" data-name="Path 439" d="M922.734,751.814a33.009,33.009,0,0,0,.458-7.606,11.962,11.962,0,0,0-2.307-6.272,10.432,10.432,0,0,0-2.677-2.426c-.268-.169-.514.255-.248.423a9.919,9.919,0,0,1,3.923,4.734,15.892,15.892,0,0,1,.844,6.849c-.089,1.4-.278,2.782-.468,4.167a.254.254,0,0,0,.171.3.247.247,0,0,0,.3-.171Z" transform="translate(-908.948 -729.862)" fill="#f2f2f2"/>
      <path id="Path_442" data-name="Path 442" d="M895.393,770.72a3.78,3.78,0,0,1-3.293,1.7c-1.667-.079-3.057-1.243-4.308-2.346l-3.7-3.268,2.449-.117a14.717,14.717,0,0,1,5.246.38,4.993,4.993,0,0,1,3.531,3.586" transform="translate(-884.092 -752.804)" fill="#e6e6e6"/>
      <path id="Path_443" data-name="Path 443" d="M911.613,781.742c-1.661-2.941-3.59-6.21-7.035-7.255a7.853,7.853,0,0,0-2.959-.306c-.314.026-.236.511.079.484a7.293,7.293,0,0,1,4.722,1.249,12.27,12.27,0,0,1,3.246,3.5c.538.817,1.019,1.672,1.5,2.524C911.319,782.214,911.768,782.018,911.613,781.742Z" transform="translate(-896.851 -758.344)" fill="#f2f2f2"/>
    </g>
    <g id="Group_59" data-name="Group 59" transform="translate(93.592 93.592)">
      <circle id="Ellipse_5" data-name="Ellipse 5" cx="4.215" cy="4.215" r="4.215" fill="#00a19c"/>
      <path id="Path_40-3" data-name="Path 40-3" d="M591.879,461.712a2.855,2.855,0,0,0,0,1.4h4.144c.049.006.089-.3.089-.691a1.567,1.567,0,0,0-.086-.714h-4.147Z" transform="translate(-589.682 -458.285)" fill="#e6e6e6"/>
    </g>
    <g id="Group_60" data-name="Group 60" transform="translate(93.592 116.079)">
      <circle id="Ellipse_5-2" data-name="Ellipse 5-2" cx="4.215" cy="4.215" r="4.215" fill="#00a19c"/>
      <path id="Path_40-4" data-name="Path 40-4" d="M591.879,547.005a2.855,2.855,0,0,0,0,1.4h4.144c.049.006.089-.3.089-.691a1.567,1.567,0,0,0-.086-.714h-4.147Z" transform="translate(-589.682 -543.578)" fill="#e6e6e6"/>
    </g>
    <g id="Group_61" data-name="Group 61" transform="translate(93.592 138.556)">
      <circle id="Ellipse_5-3" data-name="Ellipse 5-3" cx="4.215" cy="4.215" r="4.215" fill="#00a19c"/>
      <path id="Path_40-5" data-name="Path 40-5" d="M591.879,632.263a2.855,2.855,0,0,0,0,1.4h4.144c.049.006.089-.3.089-.691a1.567,1.567,0,0,0-.086-.714h-4.147Z" transform="translate(-589.682 -628.836)" fill="#e6e6e6"/>
    </g>
    <rect id="Rectangle_5908" data-name="Rectangle 5908" width="2.109" height="17.664" transform="translate(110.479 47.262) rotate(-45)" fill="#fff"/>
    <rect id="Rectangle_5909" data-name="Rectangle 5909" width="2.109" height="17.664" transform="translate(122.969 45.772) rotate(45)" fill="#fff"/>
    <path id="Path_1864" data-name="Path 1864" d="M309.076,517.56a2.651,2.651,0,0,0,1.42-3.809l6.213-7.082-4.85-.669-5.156,6.828a2.665,2.665,0,0,0,2.373,4.732Z" transform="translate(-285.28 -397.304)" fill="#9f616a"/>
    <path id="Path_1865" data-name="Path 1865" d="M100.819,647.534H96.486L94.425,630.82h6.4Z" transform="translate(-69.531 -464.51)" fill="#9f616a"/>
    <path id="Path_1866" data-name="Path 1866" d="M312.639,788.176H298.667V788a5.438,5.438,0,0,1,5.438-5.438h8.534Z" transform="translate(-280.245 -600.953)" fill="#2f2e41"/>
    <path id="Path_1867" data-name="Path 1867" d="M173.814,635.88l-4.138,1.285-6.925-15.35,6.108-1.9Z" transform="translate(-119.843 -456.482)" fill="#9f616a"/>
    <path id="Path_1868" data-name="Path 1868" d="M404.131,773.169l-13.343,4.143-.052-.169a5.438,5.438,0,0,1,3.581-6.806h0l8.15-2.53Z" transform="translate(-347.859 -590.088)" fill="#2f2e41"/>
    <path id="Path_973" data-name="Path 973" d="M316.96,495.656l-6.417,7.35,5.024.452Z" transform="translate(-288.99 -389.688)" fill="#e6e6e6"/>
    <path id="Path_975" data-name="Path 975" d="M318.244,529.515s-2.229,1.114-2.508,6.13.836,18.112.836,18.112a32.707,32.707,0,0,0,0,11.145c1.114,5.294-1.114,24.519.279,24.519s8.637.836,8.916,0,.557-13.374.557-13.374,2.229-6.409,0-10.308c0,0,7.783,13.59,12.817,23.962,1.1,2.27,9.473-.279,8.08-2.786s-4.737-13.932-4.737-13.932-2.508-8.359-6.966-11.981l2.229-17.832s4.737-11.981,1.951-13.653S318.244,529.515,318.244,529.515Z" transform="translate(-292.781 -414.074)" fill="#2f2e41"/>
    <circle id="Ellipse_182" data-name="Ellipse 182" cx="7.244" cy="7.244" r="7.244" transform="translate(26.577 55.536)" fill="#a0616a"/>
    <path id="Path_976" data-name="Path 976" d="M336.886,361.434l-9.006,5.294a11.841,11.841,0,0,0-4.737,5.294,16.1,16.1,0,0,0,0,9.752c1.114,2.229-.467,7.8-.467,7.8l-1.393,12.817s-5.015,4.737-1.114,5.294,10.867-.279,15.046,0,8.916.836,7.523-1.951-3.065-4.737-1.393-10.308c1.308-4.361,1.251-20.665,1.165-27.551a5.543,5.543,0,0,0-2.692-4.684Z" transform="translate(-294.984 -290.852)" fill="#e5e5e5"/>
    <path id="Path_980" data-name="Path 980" d="M348.279,394.727l.836,17-8.1,16.4-1.374-.523L348,412.281Z" transform="translate(-310.416 -315.368)" opacity="0.1"/>
    <path id="Path_982" data-name="Path 982" d="M380.822,467.483v-1.951l-9.472,15.6Z" transform="translate(-333.766 -367.506)" opacity="0.1"/>
    <path id="Path_983" data-name="Path 983" d="M331.1,294.505l-1.2-.479a8.171,8.171,0,0,1,5.988-2.517l-.98-1.079a4.166,4.166,0,0,1,4.573,1.558,21.286,21.286,0,0,1,3.3,4.631h1.283l-.535,1.179,1.873,1.179-1.923-.211a6.523,6.523,0,0,1-.182,3.053l.053.932a28.7,28.7,0,0,1-2.23-3.93v1.2s-1.2-1.079-1.2-1.8l-.653.839-.327-1.318-4.028,1.318.653-1.079-2.5.36.98-1.318s-2.831,1.558-2.94,2.877a7.07,7.07,0,0,1-1.524,3l-.653-1.2S327.939,296.3,331.1,294.505Z" transform="translate(-302.415 -238.436)" fill="#2f2e41"/>
    <path id="Path_1869" data-name="Path 1869" d="M344.177,519.118a2.651,2.651,0,0,0,.722-4l4.857-8.073-4.892.2L341,514.882a2.665,2.665,0,0,0,3.175,4.236Z" transform="translate(-310.81 -398.074)" fill="#9f616a"/>
    <path id="Path_981" data-name="Path 981" d="M357.45,374.008l2.09-.418s6.269,4.6,4.319,13.792-10.588,23.126-10.588,23.126-1.951,2.508-2.508,3.065-1.672,0-1.114.836-.836,1.393-.836,1.393-6.13,0-5.573-2.229,10.031-18.112,10.031-18.112l-1.393-14.767S350.763,373.451,357.45,374.008Z" transform="translate(-313.041 -299.803)" fill="#e5e5e5"/>
  </g>
</svg>
