<svg xmlns="http://www.w3.org/2000/svg" width="19.283" height="20.313" viewBox="0 0 19.283 20.313">
  <path id="Icon" d="M3.855,20.313a.444.444,0,0,1-.066-.884l6.128-.884.052,0a1.837,1.837,0,0,0,1.1-.727l.02-.021.011-.011.086-.092L14.8,13.9a.505.505,0,0,0,.184-.4.182.182,0,0,0-.027-.056.165.165,0,0,0-.061-.032h0l0,0-.005,0-.289-.549a.443.443,0,0,0,.287.549.31.31,0,0,0-.06-.006.657.657,0,0,0-.4.174l-3.462,2.712a2.232,2.232,0,0,1-.6.336,2.2,2.2,0,0,1-.677.138l-1.672.092H7.985a.776.776,0,0,1-.305-.061.751.751,0,0,1-.278-.215l-.013-.018-.007-.011a.66.66,0,0,1-.126-.28l-.007-.023,0-.011a.7.7,0,0,1,.016-.31A3.5,3.5,0,0,0,7.4,14.854a3.856,3.856,0,0,0-.246-1.1c-.1-.264-.244-.424-.408-.44a.224.224,0,0,0-.044,0,.311.311,0,0,0-.109.022.44.44,0,0,0-.149.1.735.735,0,0,0-.071.76l.007.023a2.25,2.25,0,0,1,.156,1.164,2.735,2.735,0,0,1-.486,1.1,2.409,2.409,0,0,1-.925.832,4.079,4.079,0,0,1-.989.307.444.444,0,0,1-.523-.347.446.446,0,0,1,.345-.525,3.058,3.058,0,0,0,.769-.229,1.521,1.521,0,0,0,.584-.532,1.88,1.88,0,0,0,.35-.738,1.515,1.515,0,0,0-.115-.731l-.007-.015a1.613,1.613,0,0,1,.253-1.665H.743a.742.742,0,1,1,0-1.483h.291A8.613,8.613,0,0,1,7.7,3a2.169,2.169,0,0,1-.181-.868A2.136,2.136,0,0,1,9.643,0a2.145,2.145,0,0,1,1.5.626,2.116,2.116,0,0,1,.626,1.5A2.141,2.141,0,0,1,11.587,3a8.541,8.541,0,0,1,4.143,2.3l.038.042a8.56,8.56,0,0,1,2.483,6.007h.294a.742.742,0,0,1,0,1.483H15.6l.009.014a.955.955,0,0,1,.247.48,1.355,1.355,0,0,1-.413,1.184L11.826,18.3l-.09.1-.005,0a2.511,2.511,0,0,1-1.7,1.025l-6.115.882A.462.462,0,0,1,3.855,20.313ZM7.619,12.83a1.821,1.821,0,0,1,.366.617,4.535,4.535,0,0,1,.294,1.364,4,4,0,0,1-.109,1.14l1.476-.077a1.435,1.435,0,0,0,.408-.085,1.45,1.45,0,0,0,.363-.206l3.461-2.71.058-.043ZM4.6,6.345a7.1,7.1,0,0,0-2.086,5h14.25a7.107,7.107,0,0,0-2.052-4.968l-.036-.032a7.161,7.161,0,0,0-10.076,0ZM9.642,1.488a.634.634,0,0,0-.454.187.641.641,0,0,0,0,.913.637.637,0,0,0,.454.187.643.643,0,1,0,0-1.287Z" fill="#9c9c9c"/>
</svg>
