<svg xmlns="http://www.w3.org/2000/svg" width="29.54" height="29.549" viewBox="0 0 29.54 29.549">
  <g id="_2874105150416" transform="translate(0.506 0.507)">
    <g id="Group_12072" data-name="Group 12072">
      <path id="Path_1598" data-name="Path 1598" d="M51.838,38.982A14.263,14.263,0,1,0,67.3,51.8,14.262,14.262,0,0,0,51.838,38.982Z" transform="translate(-38.842 -38.918)" fill="none" stroke="#848688" stroke-width="1" fill-rule="evenodd"/>
      <path id="Path_1600" data-name="Path 1600" d="M566.636,1239.067c.485,2.642,3.39,1.871,4.442,1.719,6.943-1,10.325,1.636,11.566-1.132.76-1.7-.383-4.036-1.213-5.113-3.477-4.512-4.629-2.33-6.315-2.218-2.758.184-3.239-2.366-6.756,1.766C567.643,1234.933,566.319,1237.342,566.636,1239.067Z" transform="translate(-560.474 -1217.879)" fill="none" stroke="#848688" stroke-width="1" fill-rule="evenodd"/>
      <ellipse id="Ellipse_2869" data-name="Ellipse 2869" cx="4.043" cy="4.043" rx="4.043" ry="4.043" transform="translate(10.223 4.784)" fill="none" stroke="#848688" stroke-width="1"/>
    </g>
  </g>
</svg>
