<svg xmlns="http://www.w3.org/2000/svg" width="36.038" height="31.23" viewBox="0 0 36.038 31.23">
  <g id="Layer_x0020_1" transform="translate(0.005 0.01)">
    <g id="_2873975156352" transform="translate(-0.005 -0.01)">
      <path id="Path_1594" data-name="Path 1594" d="M59.348,41.772a14.957,14.957,0,0,0-1.072,5.622,11.117,11.117,0,0,0,16.1,9.146,4.929,4.929,0,0,1,.727-.368c.218-.006,4.854,1.343,5.194,1.376,0-.31-1.2-4.32-1.357-5.112-.038-.2.207-.524.3-.708a11.292,11.292,0,0,0,.82-8.184,11.127,11.127,0,0,0-20.716-1.774Z" transform="translate(-51.356 -31.267)" fill="none" stroke="#848688" stroke-width="1" fill-rule="evenodd"/>
      <path id="Path_1595" data-name="Path 1595" d="M4.33,16.551l-.019-.464A19.22,19.22,0,0,1,4.4,13.661,12.366,12.366,0,0,1,4.866,11.4a14.665,14.665,0,0,1,.749-1.958,11.092,11.092,0,0,1,.947-1.669A15.3,15.3,0,0,1,9.028,4.953a14.082,14.082,0,0,1,3.218-2.068A12.986,12.986,0,0,1,16.608,1.7a14.255,14.255,0,0,1,4.642.3,12.724,12.724,0,0,1,3.277,1.257,15.666,15.666,0,0,1,2.758,1.981A11.758,11.758,0,0,1,29,7.154l.1.133a11.344,11.344,0,0,1,1.333,2.254,16.048,16.048,0,0,1,.946,2.765c.04.163.12.684.192,1.326.053.47.1,1.011.133,1.531a10,10,0,0,1-.033,1.534,11.188,11.188,0,0,1-.256,1.5c-.089.373-.19.725-.271,1.01l-.049.171c.464.007,1.146.015,1.809.013a13.371,13.371,0,0,0,1.966-.09,1.5,1.5,0,0,0,.579-.312,1.577,1.577,0,0,0,.407-.535,3.647,3.647,0,0,0,.156-1.5c0-.164-.007-.329-.007-.414s0-.37.009-.7a20.509,20.509,0,0,0-.1-3.5,1.788,1.788,0,0,0-.348-.56A1.613,1.613,0,0,0,35,11.4a2.86,2.86,0,0,0-1.134-.108h0a5.723,5.723,0,0,1-.844-.015l-.2-.024-.658-1.845a13.223,13.223,0,0,0-1.3-2.437l-.279-.437L29.6,5.282h0c-.09-.085-.223-.223-.374-.38-.342-.354-.794-.823-.855-.877l-.112-.1c-.042-.039-.083-.078-.122-.113-.316-.273-.658-.554-1-.811-.31-.23-.621-.446-.918-.626l-.11-.066c-.375-.228-.7-.426-1.128-.647a14.839,14.839,0,0,0-2.9-1.124,15.488,15.488,0,0,0-8.856.213A15.044,15.044,0,0,0,8.213,3.52l-.085.074a5.78,5.78,0,0,1-.457.367c-.482.5-.917.949-1.321,1.413A14.161,14.161,0,0,0,4.243,8.545c-.268.553-.5,1.128-.732,1.746-.037.1-.069.2-.1.306a4.694,4.694,0,0,1-.176.5l-.082.183-.2.006c-.215.006-.425,0-.629,0-.846-.018-1.607-.033-2.113.81A2.313,2.313,0,0,0,0,13.369l0,.28v4a1.777,1.777,0,0,0,.457,1.244,1.591,1.591,0,0,0,1.163.482c.122,0,.309,0,.518-.008a9.755,9.755,0,0,1,1.568.036l.171.037.061.166c.094.256.16.443.221.614a12,12,0,0,0,.951,2.171c.245.44.518.888.807,1.311a10.583,10.583,0,0,0,.807,1.047h0a19.1,19.1,0,0,0,1.63,1.65,13.556,13.556,0,0,0,1.839,1.385,14.185,14.185,0,0,0,2.8,1.365,17.3,17.3,0,0,0,3.184.766l.172.026.071.16a1.838,1.838,0,0,0,.973,1,1.616,1.616,0,0,0,.894.087,1.753,1.753,0,0,0,.814-.383,1.617,1.617,0,0,0,.576-1.114,1.661,1.661,0,0,0-.421-1.29,1.718,1.718,0,0,0-.742-.47,1.691,1.691,0,0,0-.881-.042,1.741,1.741,0,0,0-1.12.865l-.089.153-.179,0a4.673,4.673,0,0,1-.94-.132c-.527-.114-1.115-.277-1.394-.364-.348-.109-.689-.232-1.02-.366-.347-.139-.676-.288-.985-.443a12.909,12.909,0,0,1-1.74-1.045c-.527-.375-1.027-.784-1.56-1.243l-.014-.013c-.3-.294-.585-.6-.858-.921s-.525-.632-.786-.963l-.008-.009a14.352,14.352,0,0,1-1.19-1.94,12.991,12.991,0,0,1-.829-2.042c-.141-.459-.272-.938-.375-1.417a10.259,10.259,0,0,1-.214-1.461v-.008Z" transform="translate(0.005 0.01)" fill="#848688" fill-rule="evenodd"/>
      <g id="Group_12071" data-name="Group 12071" transform="translate(13.31 7.508)">
        <path id="Path_1596" data-name="Path 1596" d="M115.441,67.159c-.122-.494-.775-1.427-.108-2.4s2.861-.52,2.268,2.632c-.541,2.877-3.04,3.7-3.146,6.018a1.747,1.747,0,0,0,2.436,1.9c.317-.144.439-.7.4-1.165-.735.036-1.239-.217-1.036-1.04.386-1.564,4.533-2.853,5.2-5.659a3.188,3.188,0,0,0-1.1-3.189c-2.083-1.656-6.931-1.264-8.028.938a1.913,1.913,0,0,0-.014,1.731,1.54,1.54,0,0,0,1.416.757,3.014,3.014,0,0,0,1.715-.522Z" transform="translate(-112.111 -63.232)" fill="#848688" fill-rule="evenodd"/>
        <path id="Path_1597" data-name="Path 1597" d="M137.846,172.839a1.443,1.443,0,0,0-2.75-.871A1.429,1.429,0,1,0,137.846,172.839Z" transform="translate(-132.3 -158.196)" fill="#848688" fill-rule="evenodd"/>
      </g>
    </g>
  </g>
</svg>
