<svg xmlns="http://www.w3.org/2000/svg" width="100.804" height="120.018" viewBox="0 0 100.804 120.018">
  <g id="Group_12426" data-name="Group 12426" transform="translate(-211.225 -150.491)">
    <g id="Group_12187" data-name="Group 12187" transform="translate(211.225 150.491)">
      <path id="Path_1746" data-name="Path 1746" d="M260.81,730.329c3.335-.921,4.758,4.143,1.431,5.094C258.907,736.344,257.484,731.279,260.81,730.329Z" transform="translate(-196.762 -615.896)" fill="#3f3d56"/>
      <path id="Path_1747" data-name="Path 1747" d="M269.09,521.925l.052-.015,8.59,23.32,1.133-.318-8.651-23.488h0a1.588,1.588,0,0,0-1.328-1.485,5.72,5.72,0,0,0-6.037,3.134l.017.025,8.782,23.842,1.132-.318-8.523-23.141C266.85,520.916,269.09,521.925,269.09,521.925Z" transform="translate(-212.526 -460.903)" fill="#3f3d56"/>
      <path id="Path_1748" data-name="Path 1748" d="M203.17,635.846c5.063-.077,11.324-2.813,15.593-4.864a5.321,5.321,0,0,0,2.82-6.247l-5.533-19.684a6.687,6.687,0,0,0-3.321-4.1,6.4,6.4,0,0,0-5.109-.395c-.2.089-5.573,1.593-9.129,2.589-2.092.586-3.6,1.009-3.705,1.043a5.111,5.111,0,0,0-3.177,5.862c.513,3.489,4.381,16.346,6.02,21.712a5.754,5.754,0,0,0,5.456,4.082Z" transform="translate(-136.677 -520.101)" fill="#00a19c"/>
      <path id="Path_1749" data-name="Path 1749" d="M93.442,487.421l-7.173-24.278L69.4,467.91l-.1-.356,17.22-4.867.052.176L93.8,487.316Z" transform="translate(-11.233 -379.788)" fill="#3f3d56"/>
      <path id="Path_1756" data-name="Path 1756" d="M295.216,501.869a2.4,2.4,0,0,1,1.495-3.371l.462-8.534,3.57,2.642-.986,7.7a2.418,2.418,0,0,1-4.54,1.564Z" transform="translate(-242.86 -438.876)" fill="#ffb7b7"/>
      <path id="Path_1757" data-name="Path 1757" d="M423.8,507.456a2.405,2.405,0,0,0-.957-3.561l.859-8.5-3.935,2.06-.212,7.759a2.418,2.418,0,0,0,4.245,2.246Z" transform="translate(-399.104 -442.875)" fill="#ffb7b7"/>
      <path id="Path_1758" data-name="Path 1758" d="M213.522,561.36h-2.811l-1.338-10.843h4.149Z" transform="translate(-167.824 -444.502)" fill="#ffb7b7"/>
      <path id="Path_1759" data-name="Path 1759" d="M347.609,736.367h-5.536a3.528,3.528,0,0,0-3.528,3.528v.115h9.064Z" transform="translate(-301.195 -620.427)" fill="#2f2e41"/>
      <path id="Path_1760" data-name="Path 1760" d="M269.648,555.619l-2.749.589-3.58-10.322,4.057-.869Z" transform="translate(-238.148 -440.449)" fill="#ffb7b7"/>
      <path id="Path_1761" data-name="Path 1761" d="M398.583,729.46l-5.413,1.16h0a3.528,3.528,0,0,0-2.71,4.189l.024.112,8.863-1.9Z" transform="translate(-366.575 -615.338)" fill="#2f2e41"/>
      <path id="Path_1762" data-name="Path 1762" d="M348.674,504.094a37.514,37.514,0,0,1,.062,19.7l-2.981,12.521-.74,27.7-6.037-1.938-2.46-42.258L325.19,539.048l5.962,23.029-6.857.224-7.4-24.905,6.51-23.24,1.192-5.664Z" transform="translate(-297.908 -449.287)" fill="#2f2e41"/>
      <path id="Path_1763" data-name="Path 1763" d="M323.564,376.2l6-3.423,10.388-.6,7.206,3.783-2.928,20.09s5.585,8.016,3.549,13.356c-2.513,6.591-24.489,10.03-24.059,3.6.678-10.152,1.726-9.451,2.494-14.429.843-5.462-5.055-12.466-5.055-12.466Z" transform="translate(-297.239 -352.091)" fill="#cbcbcb"/>
      <path id="Path_1764" data-name="Path 1764" d="M288.136,385.958l.669-2.9s2.855.37,4.834,5.9,5.5,17.179,5.5,17.179l-.184,4.233s1.356,1.566.42,2.282,1.69,1.685.36,2.7a3.814,3.814,0,0,0-1.393,3.9l-4.083-1.261.3-6.665-1.618-5.254-4.323-13.15Z" transform="translate(-240.435 -360.107)" fill="#cbcbcb"/>
      <path id="Path_1765" data-name="Path 1765" d="M415.69,387.951l-.91-2.813s-1.675-.685-2.911,3.177-1.823,13.637-1.823,13.637l-2.4,11.652s-.9,1.484-.42,1.909-2.1,1.023-.6,1.811-.129-.17.43,1.627a2.31,2.31,0,0,1-.01,1.8l4.624-.93,1.261-5.973,2.86-11.1Z" transform="translate(-387.167 -361.605)" fill="#cbcbcb"/>
      <ellipse id="Ellipse_2890" data-name="Ellipse 2890" cx="7.974" cy="7.974" rx="7.974" ry="7.974" transform="translate(29.526 1.612)" fill="#2f2e41"/>
      <path id="Path_1766" data-name="Path 1766" d="M294.26,300.483a16.72,16.72,0,0,1,6.083-3.934,8.559,8.559,0,0,1,4.608-.572,4.392,4.392,0,0,1,3.42,2.881,5.438,5.438,0,0,1-.556,3.723c-.544,1.161-1.271,2.238-1.711,3.442a7.856,7.856,0,0,0,7.905,10.535,39.114,39.114,0,0,0-4.379,1.29,4.589,4.589,0,0,1-4.316-.706c-1.161-1.119-1.184-2.939-1.128-4.55l.25-7.187a9.129,9.129,0,0,0-.362-3.623,3.111,3.111,0,0,0-2.71-2.128,4.446,4.446,0,0,0-2.489,1.123A5.087,5.087,0,0,1,296.424,302c-.923.082-1.976-.6-1.907-1.525Z" transform="translate(-255.94 -295.859)" fill="#2f2e41"/>
      <ellipse id="Ellipse_2891" data-name="Ellipse 2891" cx="5.87" cy="5.87" rx="5.87" ry="5.87" transform="translate(34.364 20.484) rotate(-118.663)" fill="#ffb7b7"/>
      <path id="Path_1767" data-name="Path 1767" d="M354.16,323.667h8.476l.087-1.217.435,1.217h1.305l.172-2.412.861,2.412h2.525v-.119a6.341,6.341,0,0,0-6.333-6.333h-1.2a6.341,6.341,0,0,0-6.333,6.333Z" transform="translate(-325.717 -311.593)" fill="#2f2e41"/>
      <path id="Path_1768" data-name="Path 1768" d="M348.5,330.475l3.1-3.1.522-6.859h-6.832l.169.169C347.8,323.037,350.345,326.486,348.5,330.475Z" transform="translate(-307.473 -314.027)" fill="#2f2e41"/>
      <path id="Path_1769" data-name="Path 1769" d="M132.158,750.385H232.436a.263.263,0,0,0,0-.526H132.158a.263.263,0,1,0,0,.526Z" transform="translate(-131.895 -630.368)" fill="#cbcbcb"/>
    </g>
  </g>
</svg>
