<svg xmlns="http://www.w3.org/2000/svg" xmlns:xlink="http://www.w3.org/1999/xlink" width="44" height="44" viewBox="0 0 44 44">
  <defs>
    <clipPath id="clip-path">
      <ellipse id="Ellipse_2894" data-name="Ellipse 2894" cx="22" cy="20.5" rx="22" ry="20.5" transform="translate(-0.213 -0.08)" fill="#ff9393" stroke="#49b571" stroke-width="0.5"/>
    </clipPath>
  </defs>
  <g id="Group_12297" data-name="Group 12297" transform="translate(-296 -767)">
    <g id="Ellipse_2895" data-name="Ellipse 2895" transform="translate(296 767)" fill="none" stroke="#ff9393" stroke-width="0.5">
      <circle cx="22" cy="22" r="22" stroke="none"/>
      <circle cx="22" cy="22" r="21.75" fill="none"/>
    </g>
    <g id="Mask_Group_14" data-name="Mask Group 14" transform="translate(296.213 770.08)" clip-path="url(#clip-path)">
      <g id="Layer_x0020_1" transform="translate(4.638 8.928)">
        <g id="_1932564816464" transform="translate(0 0)">
          <path id="Path_1819" data-name="Path 1819" d="M12.631,292.067c.891-.083.885.284.881,1.09-.009,1.616-.064,8.96.014,9.739a1.379,1.379,0,0,0,2.27,1.026c.581-.488.736-2.046.931-2.968l1.407-6.414c.121-.533.239-1.051.367-1.582.144-.592.221-1,.924-.846.1.186.087.146.007.463L13.5,316.239c-.259,1.025-.675,2.368-.873,3.366l0-27.539ZM29.269,299.1c-.153.705.348.768-.266.95-.4-1.9-1.091-4.4-1.6-6.413-.116-.461-.453-1.414-.264-1.52a.589.589,0,0,1,.524.031c.37.207,1.13,3.333,1.337,4.014.2.665.471,1.422.624,2.063.1.431-.243.344-.358.875ZM7.7,321.294l.122-17.1c.011,0,.034-.017.048-.021.162-.041-.058,0,.122-.022l.624.03c.122.521.06,16.244.048,17.085a1.844,1.844,0,0,0,1.214,1.615,2.073,2.073,0,0,0,2.1-.348,1.878,1.878,0,0,0,1.514.419c.668-.114.834-.462,1.164-.712a1.741,1.741,0,0,0,2.821,0c.381.277.6.722,1.445.739a1.7,1.7,0,0,0,1.446-.738c.372.292.608.725,1.448.738a1.7,1.7,0,0,0,1.442-.738,1.941,1.941,0,0,0,1.451.738,1.734,1.734,0,0,0,1.442-.734c1.166,1.049,1.734.985,2.9.024l.336.279a1.454,1.454,0,0,0,.283.221,1.888,1.888,0,0,0,2.275-.5c.017.01.037.027.048.035l.523.442a1.7,1.7,0,0,0,2.106-.3l-4.656-18.69a1.957,1.957,0,0,0,.98-.053,1.134,1.134,0,0,0,1.145.777c.675-.033.742-.463,1.084-.767,1.178.344,1.843-.491,1.53-1.592a1.188,1.188,0,0,0,.781-1.151c-.027-.728-.448-.781-.771-1.088.345-1.2-.446-1.824-1.591-1.541-.268-.625-.5-.437-.645-.873L30.722,291.7c-.66-2.162-1.2-4.45-4.356-4.6-.7-.034-.7.077-1.025.476a20.631,20.631,0,0,1-2.116,2.342l-2.281-2.687c-.4-.4-2.583-.046-3.606,1.1a5.434,5.434,0,0,0-1.113,2.155,5.116,5.116,0,0,0-1.562-2.54,4.462,4.462,0,0,0-3.218-.846l-3.3,7.381c-.389-.483-3.04-7.209-3.235-7.345a4.3,4.3,0,0,0-3.561,1.114,4.85,4.85,0,0,0-1.3,3.393c-.07,3.13-.013,6.341,0,9.479a7.766,7.766,0,0,0,.131,2.254,1.381,1.381,0,0,0,1.528.866c1.44-.238,1.15-2.13,1.151-3.553q0-2.387,0-4.774,0-1.193,0-2.387c0-.922-.181-1.532.88-1.455.112,9.038,0,18.455,0,27.565,0,1.658-.033,2.743,1.287,3.266a1.987,1.987,0,0,0,2.679-1.6Z" transform="translate(-0.013 -279.611)" fill="#ff9393" fill-rule="evenodd"/>
          <path id="Path_1821" data-name="Path 1821" d="M766.545.723A3.477,3.477,0,1,0,767.6,7.6a3.487,3.487,0,0,0,2.9-4.018A3.433,3.433,0,0,0,766.545.724Z" transform="translate(-743.798 -0.656)" fill="#ff9393" fill-rule="evenodd"/>
          <path id="Path_1822" data-name="Path 1822" d="M183.8.742a3.477,3.477,0,1,0,3.964,2.839A3.459,3.459,0,0,0,183.8.742Z" transform="translate(-176.164 -0.671)" fill="#ff9393" fill-rule="evenodd"/>
          <path id="Path_1823" data-name="Path 1823" d="M513.711,4.717a7.487,7.487,0,0,0,1.429-1.159,3.724,3.724,0,0,0,.993-1.6C516.421.7,515.42-.366,514.349.164c-.484.239-.323.337-.638.711-.156-.184-.626-1.188-1.648-.758a1.547,1.547,0,0,0-.8,1.782A5.463,5.463,0,0,0,513.711,4.717Z" transform="translate(-497.986 -0.011)" fill="#ff9393" fill-rule="evenodd"/>
          <path id="Path_1825" data-name="Path 1825" d="M239.065,285.071c.392-.117,1.8-1.025,1.99-1.012s1.582.891,1.958,1.018l0-2.378a20.929,20.929,0,0,1-2,1c-.285-.021-1.489-.887-1.946-1l0,2.363Z" transform="translate(-232.866 -275.376)" fill="#ff9393" fill-rule="evenodd"/>
          <path id="Path_1826" data-name="Path 1826" d="M296.75,964.352a29.122,29.122,0,0,0,.09-4.27c0-2.049.09-11.595-.013-12.792l.8.009c.056,1.654-.121,16.877.092,17.026.012-.84.074-16.564-.048-17.085l-.624-.03c-.18.02.04-.02-.122.022-.015,0-.038.017-.048.021l-.122,17.1Z" transform="translate(-289.062 -922.668)" fill="#ff9393" fill-rule="evenodd"/>
        </g>
      </g>
    </g>
  </g>
</svg>
