<svg xmlns="http://www.w3.org/2000/svg" width="34.789" height="27" viewBox="0 0 34.789 27">
  <g id="Icon_ionic-md-wallet" data-name="Icon ionic-md-wallet" transform="translate(2.164 -4.5)">
    <path id="Path_1782" data-name="Path 1782" d="M16.425,24V12a3.341,3.341,0,0,1,3.6-3H36.645V7.5a3.324,3.324,0,0,0-3.568-3H7.087c-2,0-3.712,1.3-3.712,2.953V28.547c0,1.652,1.712,2.953,3.712,2.953H33.069a3.319,3.319,0,0,0,3.568-3V27H20.019A3.338,3.338,0,0,1,16.425,24Z" transform="translate(-5.539)" fill="#00a19c"/>
    <path id="Path_1783" data-name="Path 1783" d="M17.227,13.078v9.844a1.128,1.128,0,0,0,1.125,1.125H31.5a1.128,1.128,0,0,0,1.125-1.125V13.078A1.128,1.128,0,0,0,31.5,11.953H18.352A1.128,1.128,0,0,0,17.227,13.078Zm5.421,7.165a2.251,2.251,0,1,1,2.1-2.1A2.251,2.251,0,0,1,22.648,20.243Z" fill="#00a19c"/>
  </g>
</svg>
