<svg xmlns="http://www.w3.org/2000/svg" width="14.507" height="14.507" viewBox="0 0 14.507 14.507">
  <path id="Icon_ionic-ios-transgender" data-name="Icon ionic-ios-transgender" d="M17.407,7.577a.475.475,0,0,0,.474-.474V3.849a.475.475,0,0,0-.474-.474H14.154a.474.474,0,0,0,0,.949h2.089L13.627,6.953a5.632,5.632,0,0,0-6,0l-.663-.666L7.95,5.3a.474.474,0,0,0-.335-.809.464.464,0,0,0-.335.139l-.98.98L5.017,4.324H7.106a.474.474,0,0,0,0-.949H3.849a.475.475,0,0,0-.474.474V7.1a.474.474,0,1,0,.949,0V5.017L5.61,6.3,4.564,7.343a.474.474,0,0,0,.335.809.464.464,0,0,0,.335-.139l1.05-1.05.575.572a5.628,5.628,0,1,0,7.951,7.947l.572.572L14.36,17.073a.474.474,0,0,0,.335.809.464.464,0,0,0,.335-.139l1.022-1.022,1.022,1.022a.47.47,0,0,0,.335.139.464.464,0,0,0,.335-.139.474.474,0,0,0,0-.67L16.72,16.051l1.022-1.022a.474.474,0,0,0-.335-.809.464.464,0,0,0-.335.139l-1.022,1.022-.663-.663a5.625,5.625,0,0,0-.99-7.18l2.535-2.518V7.11A.473.473,0,0,0,17.407,7.577Zm-2.1,4.136a4.679,4.679,0,1,1-1.37-3.306A4.648,4.648,0,0,1,15.3,11.713Z" transform="translate(-3.375 -3.375)" fill="#707070"/>
</svg>
