<svg xmlns="http://www.w3.org/2000/svg" width="9.81" height="10.789" viewBox="0 0 9.81 10.789">
  <g id="Group_12437" data-name="Group 12437" transform="translate(0.5 0.5)">
    <path id="Path_1953" data-name="Path 1953" d="M25.437,4.468A1.468,1.468,0,1,1,23.968,3,1.468,1.468,0,0,1,25.437,4.468Z" transform="translate(-16.627 -3)" fill="none" stroke="#727272" stroke-linecap="round" stroke-linejoin="round" stroke-width="1"/>
    <path id="Path_1954" data-name="Path 1954" d="M7.437,14.968A1.468,1.468,0,1,1,5.968,13.5,1.468,1.468,0,0,1,7.437,14.968Z" transform="translate(-4.5 -10.074)" fill="none" stroke="#727272" stroke-linecap="round" stroke-linejoin="round" stroke-width="1"/>
    <path id="Path_1955" data-name="Path 1955" d="M25.437,25.468A1.468,1.468,0,1,1,23.968,24,1.468,1.468,0,0,1,25.437,25.468Z" transform="translate(-16.627 -17.148)" fill="none" stroke="#727272" stroke-linecap="round" stroke-linejoin="round" stroke-width="1"/>
    <path id="Path_1956" data-name="Path 1956" d="M12.885,20.265l3.343,1.948" transform="translate(-10.149 -14.632)" fill="none" stroke="#727272" stroke-linecap="round" stroke-linejoin="round" stroke-width="1"/>
    <path id="Path_1957" data-name="Path 1957" d="M16.223,9.765l-3.338,1.948" transform="translate(-10.149 -7.558)" fill="none" stroke="#727272" stroke-linecap="round" stroke-linejoin="round" stroke-width="1"/>
  </g>
</svg>
