<svg xmlns="http://www.w3.org/2000/svg" width="17.678" height="15.769" viewBox="0 0 17.678 15.769">
  <g id="Group_12431" data-name="Group 12431" transform="translate(-39.852 -455.447)">
    <g id="Group_12321" data-name="Group 12321" transform="translate(14.283 33)">
      <path id="Icon_awesome-id-card-alt" data-name="Icon awesome-id-card-alt" d="M15.746,1.909H11.452V4.772H5.726V1.909H1.431A1.432,1.432,0,0,0,0,3.34v10.5a1.432,1.432,0,0,0,1.431,1.431H15.746a1.432,1.432,0,0,0,1.431-1.431V3.34A1.432,1.432,0,0,0,15.746,1.909ZM8.589,6.68A1.909,1.909,0,1,1,6.68,8.589,1.91,1.91,0,0,1,8.589,6.68Zm2.782,6.68H5.806a.471.471,0,0,1-.465-.59,1.91,1.91,0,0,1,1.816-1.318H7.4a3.072,3.072,0,0,0,2.374,0h.245a1.911,1.911,0,0,1,1.816,1.318.471.471,0,0,1-.465.59ZM10.5.954A.953.953,0,0,0,9.543,0H7.635A.953.953,0,0,0,6.68.954V3.817H10.5Z" transform="translate(25.818 422.697)" fill="none" stroke="#707070" stroke-width="0.5"/>
    </g>
  </g>
</svg>
