<svg xmlns="http://www.w3.org/2000/svg" width="20.655" height="16.761" viewBox="0 0 20.655 16.761">
  <g id="Group_12209" data-name="Group 12209" transform="translate(-1.25 1.537)">
    <path id="Path_1802" data-name="Path 1802" d="M11.34,484.791c-.193-.216-.431-.432-.643-.644a1.25,1.25,0,0,1-.5-.8.807.807,0,0,1,1.455-.522l1.959,1.954a1.132,1.132,0,0,1,.487.833,1.2,1.2,0,0,1-.5.822l-1.959,1.954a.805.805,0,0,1-1.442-.56,1.3,1.3,0,0,1,.511-.789c.214-.214.429-.417.631-.631-.364-.038-.911-.006-1.3-.006H1.773a5.877,5.877,0,0,1-1.255-.051.8.8,0,0,1,.037-1.516c.244-.079,5.223-.038,5.626-.038.535,0,4.75.03,5.159-.005Z" transform="translate(7.808 -478.784)" fill="#333" fill-rule="evenodd"/>
    <path id="Path_1803" data-name="Path 1803" d="M401.9,68.269a7.63,7.63,0,1,0-.33,6.964" transform="translate(-385.32 -64.587)" fill="none" stroke="#00a19c" stroke-linecap="round" stroke-linejoin="round" stroke-width="1.5" fill-rule="evenodd"/>
  </g>
</svg>
