<svg xmlns="http://www.w3.org/2000/svg" width="18.621" height="14.997" viewBox="0 0 18.621 14.997">
  <g id="Group_12432" data-name="Group 12432" transform="translate(-39.852 -401.667)">
    <g id="Group_12322" data-name="Group 12322" transform="translate(14.601 26)">
      <path id="Icon_awesome-city" data-name="Icon awesome-city" d="M17.442,5.436H13.591V.68a.679.679,0,0,0-.68-.68H8.834a.679.679,0,0,0-.68.68V2.718H6.342V.453A.453.453,0,0,0,5.889,0H5.436a.453.453,0,0,0-.453.453V2.718H3.171V.453A.453.453,0,0,0,2.718,0H2.265a.453.453,0,0,0-.453.453V2.718H.68A.679.679,0,0,0,0,3.4V13.591a.906.906,0,0,0,.906.906H17.215a.906.906,0,0,0,.906-.906V6.116A.68.68,0,0,0,17.442,5.436Zm-13.817,6a.34.34,0,0,1-.34.34H2.152a.34.34,0,0,1-.34-.34V10.306a.34.34,0,0,1,.34-.34H3.284a.34.34,0,0,1,.34.34Zm0-2.718a.34.34,0,0,1-.34.34H2.152a.34.34,0,0,1-.34-.34V7.588a.34.34,0,0,1,.34-.34H3.284a.34.34,0,0,1,.34.34ZM3.624,6a.34.34,0,0,1-.34.34H2.152A.34.34,0,0,1,1.812,6V4.87a.34.34,0,0,1,.34-.34H3.284a.34.34,0,0,1,.34.34Zm3.624,5.436a.34.34,0,0,1-.34.34H5.776a.34.34,0,0,1-.34-.34V10.306a.34.34,0,0,1,.34-.34H6.909a.34.34,0,0,1,.34.34Zm0-2.718a.34.34,0,0,1-.34.34H5.776a.34.34,0,0,1-.34-.34V7.588a.34.34,0,0,1,.34-.34H6.909a.34.34,0,0,1,.34.34ZM7.248,6a.34.34,0,0,1-.34.34H5.776A.34.34,0,0,1,5.436,6V4.87a.34.34,0,0,1,.34-.34H6.909a.34.34,0,0,1,.34.34Zm4.53,2.718a.34.34,0,0,1-.34.34H10.306a.34.34,0,0,1-.34-.34V7.588a.34.34,0,0,1,.34-.34h1.133a.34.34,0,0,1,.34.34Zm0-2.718a.34.34,0,0,1-.34.34H10.306A.34.34,0,0,1,9.967,6V4.87a.34.34,0,0,1,.34-.34h1.133a.34.34,0,0,1,.34.34Zm0-2.718a.34.34,0,0,1-.34.34H10.306a.34.34,0,0,1-.34-.34V2.152a.34.34,0,0,1,.34-.34h1.133a.34.34,0,0,1,.34.34Zm4.53,8.154a.34.34,0,0,1-.34.34H14.837a.34.34,0,0,1-.34-.34V10.306a.34.34,0,0,1,.34-.34h1.133a.34.34,0,0,1,.34.34Zm0-2.718a.34.34,0,0,1-.34.34H14.837a.34.34,0,0,1-.34-.34V7.588a.34.34,0,0,1,.34-.34h1.133a.34.34,0,0,1,.34.34Z" transform="translate(25.501 375.917)" fill="none" stroke="#707070" stroke-width="0.5"/>
    </g>
  </g>
</svg>
